<?xml version="1.0" encoding="utf-8"?>
<!-- Generator: Adobe Illustrator 23.0.2, SVG Export Plug-In . SVG Version: 6.00 Build 0)  -->
<svg version="1.1" id="Camada_1" xmlns="http://www.w3.org/2000/svg" xmlns:xlink="http://www.w3.org/1999/xlink" x="0px" y="0px"
	 viewBox="0 0 126.44 164.09" style="enable-background:new 0 0 126.44 164.09;" xml:space="preserve">
<style type="text/css">
	.st0{fill:#3A3A3A;}
	.st1{fill:#00981E;}
	.st2{fill:#FFFFFF;}
</style>
<g>
	<g>
		<g>
			<rect x="24.89" class="st0" width="6.99" height="159.65"/>
		</g>
	</g>
</g>
<path class="st1" d="M36.47,9.88c29.82,20.21,64.01-19.74,89.97,0c-12.59,1.61-21.33,14.7-28.28,20.21
	c8.74,4.98,21.85,16.31,28.28,29.85c-28.53-19.74-58.61,20.44-89.97,0C36.47,41.57,36.47,9.88,36.47,9.88z"/>
<path class="st0" d="M0,164.09h56c0,0-7.64-6.66-28.19-6.66C8,157.43,0,164.09,0,164.09z"/>
<circle class="st2" cx="70" cy="38.19" r="17.88"/>
<g>
	<path class="st1" d="M62.51,34.73c-0.13-0.17-0.18-0.35-0.14-0.55s0.14-0.37,0.3-0.5l5.94-4.56c0.15-0.11,0.33-0.24,0.54-0.39
		s0.46-0.22,0.73-0.22h3.38c0.2,0,0.38,0.07,0.53,0.22s0.22,0.32,0.22,0.53v17.86c0,0.2-0.07,0.38-0.22,0.53
		c-0.15,0.15-0.32,0.22-0.53,0.22h-3.62c-0.2,0-0.38-0.07-0.53-0.22s-0.22-0.32-0.22-0.53V35.04l-3.29,2.49
		c-0.17,0.13-0.35,0.18-0.55,0.15c-0.2-0.03-0.37-0.12-0.5-0.29L62.51,34.73z"/>
</g>
</svg>
