<?xml version="1.0" encoding="utf-8"?>
<!-- Generator: Adobe Illustrator 25.4.1, SVG Export Plug-In . SVG Version: 6.00 Build 0)  -->
<svg version="1.1" id="Camada_1" xmlns="http://www.w3.org/2000/svg" xmlns:xlink="http://www.w3.org/1999/xlink" x="0px" y="0px"
	 viewBox="0 0 400 400" style="enable-background:new 0 0 400 400;" xml:space="preserve">
<style type="text/css">
	.st0{fill:#4D7D85;}
	.st1{fill:#F1F1F2;}
	.st2{fill:#D0D2D3;}
	.st3{fill:#7DA8D5;}
	.st4{fill:#AAC6E3;}
	.st5{fill:#FFFFFF;}
	.st6{fill:#ED624F;}
	.st7{fill:#FAAF40;}
	.st8{fill:#F6921E;}
	.st9{fill:#EAC86A;}
	.st10{fill:#344746;}
	.st11{fill-rule:evenodd;clip-rule:evenodd;fill:#4D7D85;}
	.st12{fill-rule:evenodd;clip-rule:evenodd;fill:#2C4949;}
	.st13{clip-path:url(#SVGID_00000180359545742703018580000006015935422662114470_);}
	.st14{fill-rule:evenodd;clip-rule:evenodd;fill:#589093;}
	.st15{fill:#589093;}
	.st16{fill:#2B4349;}
	.st17{clip-path:url(#SVGID_00000097499122653328121300000014024432898887094437_);}
	.st18{fill-rule:evenodd;clip-rule:evenodd;fill:#FFFFFF;}
	.st19{opacity:0.7;}
</style>
<g>
	<g>
		<path class="st0" d="M330.3,260.8H135c-13.8,0-24.9-11.2-24.9-24.9v-82c0-13.8,11.2-24.9,24.9-24.9h163
			c31.6,0,57.2,25.6,57.2,57.2v49.7C355.2,249.6,344,260.8,330.3,260.8z"/>
		<path class="st16" d="M297.9,128.9c31.6,0,57.2,25.6,57.2,57.2v49.7c0,13.8-11.2,24.9-24.9,24.9H135c-13.8,0-24.9-11.2-24.9-24.9
			v-82c0-13.8,11.2-24.9,24.9-24.9H297.9 M297.9,125.5H135c-15.7,0-28.4,12.7-28.4,28.4v82c0,15.7,12.7,28.4,28.4,28.4h195.3
			c15.7,0,28.4-12.7,28.4-28.4v-49.7C358.7,152.7,331.4,125.5,297.9,125.5L297.9,125.5z"/>
	</g>
	<g>
		<defs>
			<path id="SVGID_00000044866225635315041800000016090645627059899060_" d="M330.3,260.8H135c-13.8,0-24.9-11.2-24.9-24.9v-82
				c0-13.8,11.2-24.9,24.9-24.9h163c31.6,0,57.2,25.6,57.2,57.2v49.7C355.2,249.6,344,260.8,330.3,260.8z"/>
		</defs>
		<clipPath id="SVGID_00000137115174971556288660000015404487963139434670_">
			<use xlink:href="#SVGID_00000044866225635315041800000016090645627059899060_"  style="overflow:visible;"/>
		</clipPath>
		<g style="clip-path:url(#SVGID_00000137115174971556288660000015404487963139434670_);">
			<path class="st14" d="M255.1,110.1c-1.4,1.2-1.4,3.2-1.1,5.4c0.2,1.5,1,2.9,1.7,4.2c-1.4,2.1-3,4.3-2.8,6.9
				c0.2,4.1,2.8,6.3,6.3,6.6c1,0.1,2.1-0.1,3-0.6l1.3,2.5c0.8,1.5,0.9,3-0.9,3.7c-1,0.4-1.6,0.2-1.9,0.1c0.7-0.3,1.2-0.9,1.2-1.7
				c0-1-0.8-1.8-1.8-1.8c-0.7,0-1.4,0.4-1.7,1.1l0,0c0,0,0,0,0,0c-0.3,0.8-0.2,1.8,0.9,2.6c1.8,1.2,4,0.8,5.1-0.4
				c1-1.2,0.8-2.6,0.3-3.5l-1.7-3.3c0.3-0.2,0.5-0.5,0.8-0.8c1-1.4,1.6-3.2,0.2-5.2c-1.2-1.9-2.9-2.4-4.4-2.1
				c-0.3,0.1-0.6,0.1-0.8,0.2l0.2-0.1l-1.1-2.1c0.8-1.5,1.5-3,1.4-4.7C259.1,112,257,110.8,255.1,110.1L255.1,110.1z M256.8,112.9
				L256.8,112.9c0,0,0.1,0,0.2,0c0.2,0,0.3,0.2,0.3,0.4c0.1,0.4,0.2,0.8,0.1,1.1c-0.1,1.5-0.1,2.9-1.2,4.1c-0.7-2.1-0.9-3.8-0.4-4.7
				C256.1,113.4,256.3,112.9,256.8,112.9L256.8,112.9z M257.3,122.9l0.8,1.5l0.2-0.1c-1.1,0.6-1.6,1.7-1.6,2.9
				c-0.1,2.1,1.2,3.5,3.5,3.9c0.6,0.1,0.9-0.4,0.2-0.6c-1.7-0.6-2-1.4-1.7-2.5c0.1-0.5,0.4-0.9,0.7-1.2l2.4,4.6
				c-0.5,0.3-1,0.5-1.6,0.5c-3,0.4-3.9-0.9-4.5-2.4c-0.9-2.4,0.3-4.4,1.4-6.3C257.1,123.2,257.2,123,257.3,122.9L257.3,122.9z
				 M261,126.2c0.3,0,0.5,0,0.8,0.1c1.4,0.4,1.6,1.9,1.4,3.2c-0.1,0.5-0.3,1-0.6,1.3l-2.3-4.5C260.4,126.2,260.7,126.2,261,126.2
				L261,126.2z"/>
			<path class="st15" d="M185.6,119.8c-0.1,0-0.2,0.3-0.2,0.5l2.2,14.8c0,0.2,0,0.3-0.1,0.4c-1.1-0.7-2.9-0.4-4.2,0.8
				c-1.4,1.2-1.8,3-0.8,3.8c1,0.9,3,0.6,4.4-0.6c1-0.9,1.5-2,1.3-2.9c0,0.1,0,0.1,0,0.2l-1.7-12.6c-0.1-0.5,0-0.4,0.3-0.3
				c1.9,0.5,3.1,1.6,3.9,2.7c0.5,0.6,1.2,1.9,1.3,3.2c0,0.3,0.3,0.6,0.4-0.2c0-0.5-0.1-0.8-0.2-1.3c-0.7-3.6-3.3-4.4-4.5-5.7
				c-0.6-0.7-1.4-1.4-1.8-2.3C185.8,119.9,185.7,119.8,185.6,119.8L185.6,119.8z"/>
			<path class="st15" d="M289.7,129.4c-0.1,0-0.2,0.3-0.2,0.5l2.2,14.8c0,0.2,0,0.3-0.1,0.4c-1.1-0.7-2.9-0.4-4.2,0.8
				c-1.4,1.2-1.8,3-0.8,3.9c1,0.9,3,0.6,4.4-0.6c1-0.9,1.5-2,1.3-2.9c0,0.1,0,0.1,0,0.2l-1.1-8.1c-0.1-0.5,0.1-0.5,0.4-0.4l2.3,1
				c1.8,0.9,3.6,1.6,2.7,6.1c-0.1,0.3-0.1,1.2,0.3,0.4c0.7-1.2,0.4-3.5,0.1-4.6c0-0.1-0.2-0.5-0.3-0.7c-0.1-0.3-0.3-0.7-0.2-1.2
				c0-0.1,0-0.6,0-0.7c-0.8-4.5-3.5-5-4.7-6.1c-0.7-0.6-1.4-1.4-1.8-2.3C289.9,129.4,289.8,129.3,289.7,129.4L289.7,129.4z
				 M290.8,133.3c0.1,0,0.4,0.1,0.5,0.2c1.5,0.6,2.7,1.4,3.6,2.4c0.9,0.9,0.9,1.8,1.1,2.5c0.1,0.5-0.5,0.2-0.7,0.1
				c-0.9-1-2.1-1.6-3.1-2.5c-0.7-0.6-1.4-1.4-1.5-2.3C290.6,133.4,290.7,133.3,290.8,133.3L290.8,133.3z"/>
			<path class="st15" d="M225.7,126.2c0,0-0.1,0-0.1,0v0l-10.4,6.8l0,0c-0.1,0.1-0.2,0.3-0.2,0.5l2.2,14.8c0,0.2,0,0.3-0.1,0.4
				c-1.1-0.7-2.9-0.4-4.2,0.8c-1.4,1.2-1.8,2.9-0.8,3.8c1,0.9,3,0.6,4.4-0.6c1-0.9,1.5-2,1.3-2.9c0,0.1,0,0.1,0,0.2l-1.7-12.6
				l-0.5-2.8l9.9-6.5l2,13.4c0,0.2,0,0.3-0.1,0.4c-1.1-0.7-2.9-0.4-4.2,0.8c-1.4,1.2-1.8,3-0.8,3.9c1,0.9,3,0.6,4.4-0.6
				c1-0.9,1.5-2,1.3-2.9c0,0,0,0.1,0,0.2l-1.7-12.6l-0.7-4.1C225.9,126.2,225.8,126.2,225.7,126.2L225.7,126.2z"/>
			<path class="st15" d="M333.2,113.6C333.2,113.6,333.2,113.6,333.2,113.6c-0.1,0-0.1,0-0.1,0l0,0l-10.4,6.9l0,0
				c-0.1,0.1-0.2,0.3-0.1,0.5l2.2,14.8c0,0.2,0,0.3-0.1,0.4c-1.1-0.7-2.9-0.4-4.2,0.8c-1.4,1.2-1.8,3-0.8,3.8c1,0.9,3,0.6,4.4-0.6
				c1-0.9,1.5-2,1.3-2.9c0,0.1,0,0.1,0.1,0.2l-1.7-12.4l9.8-6.5l1.5,10.4c0,0.2,0,0.3-0.1,0.4c-1.1-0.7-2.9-0.4-4.2,0.8
				c-1.4,1.2-1.8,3-0.8,3.9c1,0.9,3,0.6,4.4-0.6c1-0.9,1.5-2,1.3-2.9c0,0.1,0,0.1,0,0.2l-1.7-12.6l-0.7-4
				C333.4,113.7,333.3,113.6,333.2,113.6L333.2,113.6z M333.1,115.5l0.2,1.4l-9.9,6.5l-0.2-1.4L333.1,115.5L333.1,115.5z"/>
			<path class="st14" d="M179.9,152.8c-1.4,1.2-1.4,3.2-1.1,5.4c0.2,1.5,1,2.9,1.7,4.2c-1.4,2.1-3,4.3-2.8,6.9
				c0.2,4.1,2.8,6.3,6.3,6.6c1,0.1,2.1-0.1,3-0.6l1.3,2.5c0.8,1.5,0.9,3-0.9,3.7c-1,0.4-1.6,0.2-1.9,0.1c0.7-0.3,1.2-0.9,1.2-1.7
				c0-1-0.8-1.8-1.8-1.8c-0.7,0-1.4,0.4-1.7,1.1l0,0c0,0,0,0,0,0c-0.3,0.8-0.2,1.8,0.9,2.6c1.8,1.2,4,0.8,5.1-0.4
				c1-1.2,0.8-2.6,0.3-3.5l-1.7-3.3c0.3-0.2,0.5-0.5,0.8-0.8c1-1.4,1.6-3.2,0.2-5.2c-1.2-1.9-2.9-2.4-4.4-2.1
				c-0.3,0.1-0.6,0.1-0.8,0.2l0.2-0.1l-1.1-2.1c0.8-1.5,1.5-3,1.4-4.7C183.9,154.6,181.8,153.4,179.9,152.8L179.9,152.8z
				 M181.7,155.6L181.7,155.6c0,0,0.1,0,0.2,0c0.2,0,0.3,0.2,0.3,0.4c0.1,0.4,0.2,0.8,0.1,1.1c-0.1,1.5-0.1,2.9-1.2,4.1
				c-0.7-2.1-0.9-3.8-0.4-4.7C180.9,156,181.1,155.6,181.7,155.6L181.7,155.6z M182.1,165.5l0.8,1.5l0.2-0.1
				c-1.1,0.6-1.6,1.7-1.6,2.9c-0.1,2.1,1.2,3.5,3.5,3.9c0.6,0.1,0.9-0.4,0.2-0.6c-1.7-0.6-2-1.4-1.7-2.5c0.1-0.5,0.4-0.9,0.7-1.2
				l2.4,4.6c-0.5,0.3-1,0.5-1.6,0.5c-3,0.4-3.9-0.9-4.5-2.4c-0.9-2.4,0.3-4.4,1.4-6.3C181.9,165.8,182.1,165.7,182.1,165.5
				L182.1,165.5z M185.8,168.8c0.3,0,0.5,0,0.8,0.1c1.4,0.4,1.6,1.9,1.4,3.2c-0.1,0.5-0.3,1-0.6,1.3l-2.3-4.5
				C185.3,168.8,185.5,168.8,185.8,168.8L185.8,168.8z"/>
			<path class="st15" d="M214.5,164.6c-0.1,0-0.2,0.3-0.2,0.5l2.2,14.8c0,0.2,0,0.3-0.1,0.4c-1.1-0.7-2.9-0.4-4.2,0.8
				c-1.4,1.2-1.8,3-0.8,3.9c1,0.9,3,0.6,4.4-0.6c1-0.9,1.5-2,1.3-2.9c0,0.1,0,0.1,0,0.2l-1.1-8.1c-0.1-0.5,0.1-0.5,0.4-0.4l2.3,1
				c1.8,0.9,3.6,1.6,2.7,6.1c-0.1,0.3-0.1,1.2,0.3,0.4c0.7-1.2,0.4-3.5,0.1-4.6c0-0.1-0.2-0.5-0.3-0.7c-0.1-0.3-0.3-0.7-0.2-1.2
				c0-0.1,0-0.6,0-0.7c-0.8-4.5-3.5-5-4.7-6.1c-0.7-0.6-1.4-1.4-1.8-2.3C214.8,164.7,214.6,164.6,214.5,164.6L214.5,164.6z
				 M215.6,168.6c0.1,0,0.4,0.1,0.5,0.2c1.5,0.6,2.7,1.4,3.6,2.4c0.9,0.9,0.9,1.8,1.1,2.5c0.1,0.5-0.5,0.2-0.7,0.1
				c-0.9-1-2.1-1.6-3.1-2.5c-0.7-0.6-1.4-1.4-1.5-2.3C215.5,168.7,215.5,168.6,215.6,168.6L215.6,168.6z"/>
			<path class="st15" d="M150.6,161.4c0,0-0.1,0-0.1,0v0l-10.4,6.8l0,0c-0.1,0.1-0.2,0.3-0.2,0.5l2.2,14.8c0,0.2,0,0.3-0.1,0.4
				c-1.1-0.7-2.9-0.4-4.2,0.8c-1.4,1.2-1.8,2.9-0.8,3.8c1,0.9,3,0.6,4.4-0.6c1-0.9,1.5-2,1.3-2.9c0,0.1,0,0.1,0,0.2l-1.7-12.6
				l-0.5-2.8l9.9-6.5l2,13.4c0,0.2,0,0.3-0.1,0.4c-1.1-0.7-2.9-0.4-4.2,0.8c-1.4,1.2-1.8,3-0.8,3.9c1,0.9,3,0.6,4.4-0.6
				c1-0.9,1.5-2,1.3-2.9c0,0,0,0.1,0,0.2l-1.7-12.6l-0.7-4.1C150.8,161.5,150.7,161.4,150.6,161.4L150.6,161.4z"/>
			<path class="st15" d="M258.1,148.8C258.1,148.8,258.1,148.8,258.1,148.8c-0.1,0-0.1,0-0.1,0l0,0l-10.4,6.9l0,0
				c-0.1,0.1-0.2,0.3-0.1,0.5l2.2,14.8c0,0.2,0,0.3-0.1,0.4c-1.1-0.7-2.9-0.4-4.2,0.8c-1.4,1.2-1.8,3-0.8,3.8c1,0.9,3,0.6,4.4-0.6
				c1-0.9,1.5-2,1.3-2.9c0,0.1,0,0.1,0.1,0.2l-1.7-12.4l9.8-6.5l1.5,10.4c0,0.2,0,0.3-0.1,0.4c-1.1-0.7-2.9-0.4-4.2,0.8
				c-1.4,1.2-1.8,3-0.8,3.9c1,0.9,3,0.6,4.4-0.6c1-0.9,1.5-2,1.3-2.9c0,0.1,0,0.1,0,0.2l-1.7-12.6l-0.7-4
				C258.3,148.9,258.2,148.8,258.1,148.8L258.1,148.8z M258,150.7l0.2,1.4l-9.9,6.5l-0.2-1.4L258,150.7L258,150.7z"/>
			<path class="st14" d="M327.9,145.4c-1.4,1.2-1.4,3.2-1.1,5.4c0.2,1.5,1,2.9,1.7,4.2c-1.4,2.1-3,4.3-2.8,6.9
				c0.2,4.1,2.8,6.3,6.3,6.6c1,0.1,2.1-0.1,3-0.6l1.3,2.5c0.8,1.5,0.9,3-0.9,3.7c-1,0.4-1.6,0.2-1.9,0.1c0.7-0.3,1.2-0.9,1.2-1.7
				c0-1-0.8-1.8-1.8-1.8c-0.7,0-1.4,0.4-1.7,1.1l0,0c0,0,0,0,0,0c-0.3,0.8-0.2,1.8,0.9,2.6c1.8,1.2,4,0.8,5.1-0.4
				c1-1.2,0.8-2.6,0.3-3.5l-1.7-3.3c0.3-0.2,0.5-0.5,0.8-0.8c1-1.4,1.6-3.2,0.2-5.2c-1.2-1.9-2.9-2.4-4.4-2.1
				c-0.3,0.1-0.6,0.1-0.8,0.2l0.2-0.1l-1.1-2.1c0.8-1.5,1.5-3,1.4-4.7C331.9,147.2,329.8,146,327.9,145.4L327.9,145.4z M329.6,148.2
				L329.6,148.2c0,0,0.1,0,0.2,0c0.2,0,0.3,0.2,0.3,0.4c0.1,0.4,0.2,0.8,0.1,1.1c-0.1,1.5-0.1,2.9-1.2,4.1c-0.7-2.1-0.9-3.8-0.4-4.7
				C328.9,148.6,329.1,148.2,329.6,148.2L329.6,148.2z M330.1,158.1l0.8,1.5l0.2-0.1c-1.1,0.6-1.6,1.7-1.6,2.9
				c-0.1,2.1,1.2,3.5,3.5,3.9c0.6,0.1,0.9-0.4,0.2-0.6c-1.7-0.6-2-1.4-1.7-2.5c0.1-0.5,0.4-0.9,0.7-1.2l2.4,4.6
				c-0.5,0.3-1,0.5-1.6,0.5c-3,0.4-3.9-0.9-4.5-2.4c-0.9-2.4,0.3-4.4,1.4-6.3C329.9,158.4,330,158.3,330.1,158.1L330.1,158.1z
				 M333.8,161.4c0.3,0,0.5,0,0.8,0.1c1.4,0.4,1.6,1.9,1.4,3.2c-0.1,0.5-0.3,1-0.6,1.3l-2.3-4.5
				C333.3,161.4,333.5,161.4,333.8,161.4L333.8,161.4z"/>
			<path class="st15" d="M355.8,149.8c-0.1,0-0.2,0.3-0.2,0.5l2.2,14.8c0,0.2,0,0.3-0.1,0.4c-1.1-0.7-2.9-0.4-4.2,0.8
				c-1.4,1.2-1.8,3-0.8,3.9c1,0.9,3,0.6,4.4-0.6c1-0.9,1.5-2,1.3-2.9c0,0.1,0,0.1,0,0.2l-1.1-8.1c-0.1-0.5,0.1-0.5,0.4-0.4l2.3,1
				c1.8,0.9,3.6,1.6,2.7,6.1c-0.1,0.3-0.1,1.2,0.3,0.4c0.7-1.2,0.4-3.5,0.1-4.6c0-0.1-0.2-0.5-0.3-0.7c-0.1-0.3-0.3-0.7-0.2-1.2
				c0-0.1,0-0.6,0-0.7c-0.8-4.5-3.5-5-4.7-6.1c-0.7-0.6-1.4-1.4-1.8-2.3C356,149.8,355.9,149.7,355.8,149.8L355.8,149.8z
				 M356.9,153.7c0.1,0,0.4,0.1,0.5,0.2c1.5,0.6,2.7,1.4,3.6,2.4c0.9,0.9,0.9,1.8,1.1,2.5c0.1,0.5-0.5,0.2-0.7,0.1
				c-0.9-1-2.1-1.6-3.1-2.5c-0.7-0.6-1.4-1.4-1.5-2.3C356.7,153.8,356.8,153.7,356.9,153.7L356.9,153.7z"/>
			<path class="st15" d="M298.6,161.4c0,0-0.1,0-0.1,0v0l-10.4,6.8l0,0c-0.1,0.1-0.2,0.3-0.2,0.5l2.2,14.8c0,0.2,0,0.3-0.1,0.4
				c-1.1-0.7-2.9-0.4-4.2,0.8c-1.4,1.2-1.8,2.9-0.8,3.8c1,0.9,3,0.6,4.4-0.6c1-0.9,1.5-2,1.3-2.9c0,0.1,0,0.1,0,0.2l-1.7-12.6
				l-0.5-2.8l9.9-6.5l2,13.4c0,0.2,0,0.3-0.1,0.4c-1.1-0.7-2.9-0.4-4.2,0.8c-1.4,1.2-1.8,3-0.8,3.9c1,0.9,3,0.6,4.4-0.6
				c1-0.9,1.5-2,1.3-2.9c0,0,0,0.1,0,0.2l-1.7-12.6l-0.7-4.1C298.7,161.5,298.6,161.4,298.6,161.4L298.6,161.4z"/>
			<path class="st14" d="M105.7,130.4c-1.4,1.2-1.4,3.2-1.1,5.4c0.2,1.5,1,2.9,1.7,4.2c-1.4,2.1-3,4.3-2.8,6.9
				c0.2,4.1,2.8,6.3,6.3,6.6c1,0.1,2.1-0.1,3-0.6l1.3,2.5c0.8,1.5,0.9,3-0.9,3.7c-1,0.4-1.6,0.2-1.9,0.1c0.7-0.3,1.2-0.9,1.2-1.7
				c0-1-0.8-1.8-1.8-1.8c-0.7,0-1.4,0.4-1.7,1.1l0,0c0,0,0,0,0,0c-0.3,0.8-0.2,1.8,0.9,2.6c1.8,1.2,4,0.8,5.1-0.4
				c1-1.2,0.8-2.6,0.3-3.5l-1.7-3.3c0.3-0.2,0.5-0.5,0.8-0.8c1-1.4,1.6-3.2,0.2-5.2c-1.2-1.9-2.9-2.4-4.4-2.1
				c-0.3,0.1-0.6,0.1-0.8,0.2l0.2-0.1l-1.1-2.1c0.8-1.5,1.5-3,1.4-4.7C109.6,132.3,107.5,131.1,105.7,130.4L105.7,130.4z
				 M107.4,133.2L107.4,133.2c0,0,0.1,0,0.2,0c0.2,0,0.3,0.2,0.3,0.4c0.1,0.4,0.2,0.8,0.1,1.1c-0.1,1.5-0.1,2.9-1.2,4.1
				c-0.7-2.1-0.9-3.8-0.4-4.7C106.6,133.7,106.9,133.2,107.4,133.2L107.4,133.2z M107.9,143.2l0.8,1.5l0.2-0.1
				c-1.1,0.6-1.6,1.7-1.6,2.9c-0.1,2.1,1.2,3.5,3.5,3.9c0.6,0.1,0.9-0.4,0.2-0.6c-1.7-0.6-2-1.4-1.7-2.5c0.1-0.5,0.4-0.9,0.7-1.2
				l2.4,4.6c-0.5,0.3-1,0.5-1.6,0.5c-3,0.4-3.9-0.9-4.5-2.4c-0.9-2.4,0.3-4.4,1.4-6.3C107.7,143.5,107.8,143.3,107.9,143.2
				L107.9,143.2z M111.5,146.4c0.3,0,0.5,0,0.8,0.1c1.4,0.4,1.6,1.9,1.4,3.2c-0.1,0.5-0.3,1-0.6,1.3l-2.3-4.5
				C111,146.5,111.3,146.4,111.5,146.4L111.5,146.4z"/>
			<path class="st15" d="M144.1,129.4c-0.1,0-0.2,0.3-0.2,0.5l2.2,14.8c0,0.2,0,0.3-0.1,0.4c-1.1-0.7-2.9-0.4-4.2,0.8
				c-1.4,1.2-1.8,3-0.8,3.9c1,0.9,3,0.6,4.4-0.6c1-0.9,1.5-2,1.3-2.9c0,0.1,0,0.1,0,0.2l-1.1-8.1c-0.1-0.5,0.1-0.5,0.4-0.4l2.3,1
				c1.8,0.9,3.6,1.6,2.7,6.1c-0.1,0.3-0.1,1.2,0.3,0.4c0.7-1.2,0.4-3.5,0.1-4.6c0-0.1-0.2-0.5-0.3-0.7c-0.1-0.3-0.3-0.7-0.2-1.2
				c0-0.1,0-0.6,0-0.7c-0.8-4.5-3.5-5-4.7-6.1c-0.7-0.6-1.4-1.4-1.8-2.3C144.3,129.4,144.2,129.3,144.1,129.4L144.1,129.4z
				 M145.2,133.3c0.1,0,0.4,0.1,0.5,0.2c1.5,0.6,2.7,1.4,3.6,2.4c0.9,0.9,0.9,1.8,1.1,2.5c0.1,0.5-0.5,0.2-0.7,0.1
				c-0.9-1-2.1-1.6-3.1-2.5c-0.7-0.6-1.4-1.4-1.5-2.3C145,133.4,145.1,133.3,145.2,133.3L145.2,133.3z"/>
			<path class="st14" d="M179.9,222.9c-1.4,1.2-1.4,3.2-1.1,5.4c0.2,1.5,1,2.9,1.7,4.2c-1.4,2.1-3,4.3-2.8,6.9
				c0.2,4.1,2.8,6.3,6.3,6.6c1,0.1,2.1-0.1,3-0.6l1.3,2.5c0.8,1.5,0.9,3-0.9,3.7c-1,0.4-1.6,0.2-1.9,0.1c0.7-0.3,1.2-0.9,1.2-1.7
				c0-1-0.8-1.8-1.8-1.8c-0.7,0-1.4,0.4-1.7,1.1l0,0c0,0,0,0,0,0c-0.3,0.8-0.2,1.8,0.9,2.6c1.8,1.2,4,0.8,5.1-0.4
				c1-1.2,0.8-2.6,0.3-3.5l-1.7-3.3c0.3-0.2,0.5-0.5,0.8-0.8c1-1.4,1.6-3.2,0.2-5.2c-1.2-1.9-2.9-2.4-4.4-2.1
				c-0.3,0.1-0.6,0.1-0.8,0.2l0.2-0.1l-1.1-2.1c0.8-1.5,1.5-3,1.4-4.7C183.9,224.7,181.8,223.5,179.9,222.9L179.9,222.9z
				 M181.7,225.7L181.7,225.7c0,0,0.1,0,0.2,0c0.2,0,0.3,0.2,0.3,0.4c0.1,0.4,0.2,0.8,0.1,1.1c-0.1,1.5-0.1,2.9-1.2,4.1
				c-0.7-2.1-0.9-3.8-0.4-4.7C180.9,226.1,181.1,225.7,181.7,225.7L181.7,225.7z M182.1,235.6l0.8,1.5l0.2-0.1
				c-1.1,0.6-1.6,1.7-1.6,2.9c-0.1,2.1,1.2,3.5,3.5,3.9c0.6,0.1,0.9-0.4,0.2-0.6c-1.7-0.6-2-1.4-1.7-2.5c0.1-0.5,0.4-0.9,0.7-1.2
				l2.4,4.6c-0.5,0.3-1,0.5-1.6,0.5c-3,0.4-3.9-0.9-4.5-2.4c-0.9-2.4,0.3-4.4,1.4-6.3C181.9,235.9,182.1,235.8,182.1,235.6
				L182.1,235.6z M185.8,238.9c0.3,0,0.5,0,0.8,0.1c1.4,0.4,1.6,1.9,1.4,3.2c-0.1,0.5-0.3,1-0.6,1.3l-2.3-4.5
				C185.3,238.9,185.5,238.9,185.8,238.9L185.8,238.9z"/>
			<path class="st15" d="M110.4,232.5c-0.1,0-0.2,0.3-0.2,0.5l2.2,14.8c0,0.2,0,0.3-0.1,0.4c-1.1-0.7-2.9-0.4-4.2,0.8
				c-1.4,1.2-1.8,3-0.8,3.8c1,0.9,3,0.6,4.4-0.6c1-0.9,1.5-2,1.3-2.9c0,0.1,0,0.1,0,0.2l-1.7-12.6c-0.1-0.5,0-0.4,0.3-0.3
				c1.9,0.5,3.1,1.6,3.9,2.7c0.5,0.6,1.2,1.9,1.3,3.2c0,0.3,0.3,0.6,0.4-0.2c0-0.5-0.1-0.8-0.2-1.3c-0.7-3.6-3.3-4.4-4.5-5.7
				c-0.6-0.7-1.4-1.4-1.8-2.3C110.6,232.7,110.5,232.5,110.4,232.5L110.4,232.5z"/>
			<path class="st15" d="M214.5,242.1c-0.1,0-0.2,0.3-0.2,0.5l2.2,14.8c0,0.2,0,0.3-0.1,0.4c-1.1-0.7-2.9-0.4-4.2,0.8
				c-1.4,1.2-1.8,3-0.8,3.9c1,0.9,3,0.6,4.4-0.6c1-0.9,1.5-2,1.3-2.9c0,0.1,0,0.1,0,0.2l-1.1-8.1c-0.1-0.5,0.1-0.5,0.4-0.4l2.3,1
				c1.8,0.9,3.6,1.6,2.7,6.1c-0.1,0.3-0.1,1.2,0.3,0.4c0.7-1.2,0.4-3.5,0.1-4.6c0-0.1-0.2-0.5-0.3-0.7c-0.1-0.3-0.3-0.7-0.2-1.2
				c0-0.1,0-0.6,0-0.7c-0.8-4.5-3.5-5-4.7-6.1c-0.7-0.6-1.4-1.4-1.8-2.3C214.8,242.2,214.6,242.1,214.5,242.1L214.5,242.1z
				 M215.6,246.1c0.1,0,0.4,0.1,0.5,0.2c1.5,0.6,2.7,1.4,3.6,2.4c0.9,0.9,0.9,1.8,1.1,2.5c0.1,0.5-0.5,0.2-0.7,0.1
				c-0.9-1-2.1-1.6-3.1-2.5c-0.7-0.6-1.4-1.4-1.5-2.3C215.5,246.2,215.5,246.1,215.6,246.1L215.6,246.1z"/>
			<path class="st15" d="M150.6,238.9c0,0-0.1,0-0.1,0v0l-10.4,6.8l0,0c-0.1,0.1-0.2,0.3-0.2,0.5l2.2,14.8c0,0.2,0,0.3-0.1,0.4
				c-1.1-0.7-2.9-0.4-4.2,0.8c-1.4,1.2-1.8,2.9-0.8,3.8c1,0.9,3,0.6,4.4-0.6c1-0.9,1.5-2,1.3-2.9c0,0.1,0,0.1,0,0.2l-1.7-12.6
				l-0.5-2.8l9.9-6.5l2,13.4c0,0.2,0,0.3-0.1,0.4c-1.1-0.7-2.9-0.4-4.2,0.8c-1.4,1.2-1.8,3-0.8,3.9c1,0.9,3,0.6,4.4-0.6
				c1-0.9,1.5-2,1.3-2.9c0,0,0,0.1,0,0.2l-1.7-12.6l-0.7-4.1C150.8,239,150.7,238.9,150.6,238.9L150.6,238.9z"/>
			<path class="st15" d="M258.1,226.3C258.1,226.3,258.1,226.3,258.1,226.3c-0.1,0-0.1,0-0.1,0l0,0l-10.4,6.9l0,0
				c-0.1,0.1-0.2,0.3-0.1,0.5l2.2,14.8c0,0.2,0,0.3-0.1,0.4c-1.1-0.7-2.9-0.4-4.2,0.8c-1.4,1.2-1.8,3-0.8,3.8c1,0.9,3,0.6,4.4-0.6
				c1-0.9,1.5-2,1.3-2.9c0,0.1,0,0.1,0.1,0.2l-1.7-12.4l9.8-6.5l1.5,10.4c0,0.2,0,0.3-0.1,0.4c-1.1-0.7-2.9-0.4-4.2,0.8
				c-1.4,1.2-1.8,3-0.8,3.9c1,0.9,3,0.6,4.4-0.6c1-0.9,1.5-2,1.3-2.9c0,0.1,0,0.1,0,0.2l-1.7-12.6l-0.7-4
				C258.3,226.4,258.2,226.3,258.1,226.3L258.1,226.3z M258,228.2l0.2,1.4l-9.9,6.5l-0.2-1.4L258,228.2L258,228.2z"/>
			<path class="st14" d="M348.2,184.3c-1.4,1.2-1.4,3.2-1.1,5.4c0.2,1.5,1,2.9,1.7,4.2c-1.4,2.1-3,4.3-2.8,6.9
				c0.2,4.1,2.8,6.3,6.3,6.6c1,0.1,2.1-0.1,3-0.6l1.3,2.5c0.8,1.5,0.9,3-0.9,3.7c-1,0.4-1.6,0.2-1.9,0.1c0.7-0.3,1.2-0.9,1.2-1.7
				c0-1-0.8-1.8-1.8-1.8c-0.7,0-1.4,0.4-1.7,1.1l0,0c0,0,0,0,0,0c-0.3,0.8-0.2,1.8,0.9,2.6c1.8,1.2,4,0.8,5.1-0.4
				c1-1.2,0.8-2.6,0.3-3.5l-1.7-3.3c0.3-0.2,0.5-0.5,0.8-0.8c1-1.4,1.6-3.2,0.2-5.2c-1.2-1.9-2.9-2.4-4.4-2.1
				c-0.3,0.1-0.6,0.1-0.8,0.2l0.2-0.1L351,196c0.9-1.5,1.5-3,1.4-4.7C352.1,186.2,350.1,185,348.2,184.3L348.2,184.3z M349.9,187.2
				L349.9,187.2c0,0,0.1,0,0.2,0c0.2,0,0.3,0.2,0.3,0.4c0.1,0.4,0.2,0.8,0.1,1.1c-0.1,1.5-0.1,2.9-1.2,4.1c-0.7-2.1-0.9-3.8-0.4-4.7
				C349.2,187.6,349.4,187.2,349.9,187.2L349.9,187.2z M350.4,197.1l0.8,1.5l0.2-0.1c-1.1,0.6-1.6,1.7-1.6,2.9
				c-0.1,2.1,1.2,3.5,3.5,3.9c0.6,0.1,0.9-0.4,0.2-0.6c-1.7-0.6-2-1.4-1.7-2.5c0.1-0.5,0.4-0.9,0.7-1.2l2.4,4.6
				c-0.5,0.3-1,0.5-1.6,0.5c-3,0.4-3.9-0.9-4.5-2.4c-0.9-2.4,0.3-4.4,1.4-6.3C350.2,197.4,350.3,197.2,350.4,197.1L350.4,197.1z
				 M354,200.4c0.3,0,0.5,0,0.8,0.1c1.4,0.4,1.6,1.9,1.4,3.2c-0.1,0.5-0.3,1-0.6,1.3l-2.3-4.5C353.5,200.4,353.8,200.4,354,200.4
				L354,200.4z"/>
			<path class="st15" d="M362.5,242.1c-0.1,0-0.2,0.3-0.2,0.5l2.2,14.8c0,0.2,0,0.3-0.1,0.4c-1.1-0.7-2.9-0.4-4.2,0.8
				c-1.4,1.2-1.8,3-0.8,3.9c1,0.9,3,0.6,4.4-0.6c1-0.9,1.5-2,1.3-2.9c0,0.1,0,0.1,0,0.2l-1.1-8.1c-0.1-0.5,0.1-0.5,0.4-0.4l2.3,1
				c1.8,0.9,3.6,1.6,2.7,6.1c-0.1,0.3-0.1,1.2,0.3,0.4c0.7-1.2,0.4-3.5,0.1-4.6c0-0.1-0.2-0.5-0.3-0.7c-0.1-0.3-0.3-0.7-0.2-1.2
				c0-0.1,0-0.6,0-0.7c-0.8-4.5-3.5-5-4.7-6.1c-0.7-0.6-1.4-1.4-1.8-2.3C362.7,242.2,362.6,242.1,362.5,242.1L362.5,242.1z
				 M363.6,246.1c0.1,0,0.4,0.1,0.5,0.2c1.5,0.6,2.7,1.4,3.6,2.4c0.9,0.9,0.9,1.8,1.1,2.5c0.1,0.5-0.5,0.2-0.7,0.1
				c-0.9-1-2.1-1.6-3.1-2.5c-0.7-0.6-1.4-1.4-1.5-2.3C363.4,246.2,363.5,246.1,363.6,246.1L363.6,246.1z"/>
			<path class="st15" d="M298.6,238.9c0,0-0.1,0-0.1,0v0l-10.4,6.8l0,0c-0.1,0.1-0.2,0.3-0.2,0.5l2.2,14.8c0,0.2,0,0.3-0.1,0.4
				c-1.1-0.7-2.9-0.4-4.2,0.8c-1.4,1.2-1.8,2.9-0.8,3.8c1,0.9,3,0.6,4.4-0.6c1-0.9,1.5-2,1.3-2.9c0,0.1,0,0.1,0,0.2l-1.7-12.6
				l-0.5-2.8l9.9-6.5l2,13.4c0,0.2,0,0.3-0.1,0.4c-1.1-0.7-2.9-0.4-4.2,0.8c-1.4,1.2-1.8,3-0.8,3.9c1,0.9,3,0.6,4.4-0.6
				c1-0.9,1.5-2,1.3-2.9c0,0,0,0.1,0,0.2l-1.7-12.6l-0.7-4.1C298.7,239,298.6,238.9,298.6,238.9L298.6,238.9z"/>
			<path class="st14" d="M255.1,185.3c-1.4,1.2-1.4,3.2-1.1,5.4c0.2,1.5,1,2.9,1.7,4.2c-1.4,2.1-3,4.3-2.8,6.9
				c0.2,4.1,2.8,6.3,6.3,6.6c1,0.1,2.1-0.1,3-0.6l1.3,2.5c0.8,1.5,0.9,3-0.9,3.7c-1,0.4-1.6,0.2-1.9,0.1c0.7-0.3,1.2-0.9,1.2-1.7
				c0-1-0.8-1.8-1.8-1.8c-0.7,0-1.4,0.4-1.7,1.1l0,0c0,0,0,0,0,0c-0.3,0.8-0.2,1.8,0.9,2.6c1.8,1.2,4,0.8,5.1-0.4
				c1-1.2,0.8-2.6,0.3-3.5l-1.7-3.3c0.3-0.2,0.5-0.5,0.8-0.8c1-1.4,1.6-3.2,0.2-5.2c-1.2-1.9-2.9-2.4-4.4-2.1
				c-0.3,0.1-0.6,0.1-0.8,0.2l0.2-0.1l-1.1-2.1c0.8-1.5,1.5-3,1.4-4.7C259.1,187.2,257,186,255.1,185.3L255.1,185.3z M256.8,188.1
				L256.8,188.1c0,0,0.1,0,0.2,0c0.2,0,0.3,0.2,0.3,0.4c0.1,0.4,0.2,0.8,0.1,1.1c-0.1,1.5-0.1,2.9-1.2,4.1c-0.7-2.1-0.9-3.8-0.4-4.7
				C256.1,188.5,256.3,188.1,256.8,188.1L256.8,188.1z M257.3,198l0.8,1.5l0.2-0.1c-1.1,0.6-1.6,1.7-1.6,2.9
				c-0.1,2.1,1.2,3.5,3.5,3.9c0.6,0.1,0.9-0.4,0.2-0.6c-1.7-0.6-2-1.4-1.7-2.5c0.1-0.5,0.4-0.9,0.7-1.2l2.4,4.6
				c-0.5,0.3-1,0.5-1.6,0.5c-3,0.4-3.9-0.9-4.5-2.4c-0.9-2.4,0.3-4.4,1.4-6.3C257.1,198.4,257.2,198.2,257.3,198L257.3,198z
				 M261,201.3c0.3,0,0.5,0,0.8,0.1c1.4,0.4,1.6,1.9,1.4,3.2c-0.1,0.5-0.3,1-0.6,1.3l-2.3-4.5C260.4,201.3,260.7,201.3,261,201.3
				L261,201.3z"/>
			<path class="st15" d="M185.6,195c-0.1,0-0.2,0.3-0.2,0.5l2.2,14.8c0,0.2,0,0.3-0.1,0.4c-1.1-0.7-2.9-0.4-4.2,0.8
				c-1.4,1.2-1.8,3-0.8,3.8c1,0.9,3,0.6,4.4-0.6c1-0.9,1.5-2,1.3-2.9c0,0.1,0,0.1,0,0.2l-1.7-12.6c-0.1-0.5,0-0.4,0.3-0.3
				c1.9,0.5,3.1,1.6,3.9,2.7c0.5,0.6,1.2,1.9,1.3,3.2c0,0.3,0.3,0.6,0.4-0.2c0-0.5-0.1-0.8-0.2-1.3c-0.7-3.6-3.3-4.4-4.5-5.7
				c-0.6-0.7-1.4-1.4-1.8-2.3C185.8,195.1,185.7,195,185.6,195L185.6,195z"/>
			<path class="st15" d="M289.7,204.5c-0.1,0-0.2,0.3-0.2,0.5l2.2,14.8c0,0.2,0,0.3-0.1,0.4c-1.1-0.7-2.9-0.4-4.2,0.8
				c-1.4,1.2-1.8,3-0.8,3.9c1,0.9,3,0.6,4.4-0.6c1-0.9,1.5-2,1.3-2.9c0,0.1,0,0.1,0,0.2l-1.1-8.1c-0.1-0.5,0.1-0.5,0.4-0.4l2.3,1
				c1.8,0.9,3.6,1.6,2.7,6.1c-0.1,0.3-0.1,1.2,0.3,0.4c0.7-1.2,0.4-3.5,0.1-4.6c0-0.1-0.2-0.5-0.3-0.7c-0.1-0.3-0.3-0.7-0.2-1.2
				c0-0.1,0-0.6,0-0.7c-0.8-4.5-3.5-5-4.7-6.1c-0.7-0.6-1.4-1.4-1.8-2.3C289.9,204.6,289.8,204.5,289.7,204.5L289.7,204.5z
				 M290.8,208.5c0.1,0,0.4,0.1,0.5,0.2c1.5,0.6,2.7,1.4,3.6,2.4c0.9,0.9,0.9,1.8,1.1,2.5c0.1,0.5-0.5,0.2-0.7,0.1
				c-0.9-1-2.1-1.6-3.1-2.5c-0.7-0.6-1.4-1.4-1.5-2.3C290.6,208.6,290.7,208.5,290.8,208.5L290.8,208.5z"/>
			<path class="st15" d="M225.7,201.3c0,0-0.1,0-0.1,0v0l-10.4,6.8l0,0c-0.1,0.1-0.2,0.3-0.2,0.5l2.2,14.8c0,0.2,0,0.3-0.1,0.4
				c-1.1-0.7-2.9-0.4-4.2,0.8c-1.4,1.2-1.8,2.9-0.8,3.8c1,0.9,3,0.6,4.4-0.6c1-0.9,1.5-2,1.3-2.9c0,0.1,0,0.1,0,0.2l-1.7-12.6
				l-0.5-2.8l9.9-6.5l2,13.4c0,0.2,0,0.3-0.1,0.4c-1.1-0.7-2.9-0.4-4.2,0.8c-1.4,1.2-1.8,3-0.8,3.9c1,0.9,3,0.6,4.4-0.6
				c1-0.9,1.5-2,1.3-2.9c0,0,0,0.1,0,0.2l-1.7-12.6l-0.7-4.1C225.9,201.4,225.8,201.3,225.7,201.3L225.7,201.3z"/>
			<path class="st15" d="M329.1,181.1C329,181.1,329,181.1,329.1,181.1c-0.1,0-0.1,0-0.1,0l0,0l-10.4,6.9l0,0
				c-0.1,0.1-0.2,0.3-0.1,0.5l2.2,14.8c0,0.2,0,0.3-0.1,0.4c-1.1-0.7-2.9-0.4-4.2,0.8c-1.4,1.2-1.8,3-0.8,3.8c1,0.9,3,0.6,4.4-0.6
				c1-0.9,1.5-2,1.3-2.9c0,0.1,0,0.1,0.1,0.2l-1.7-12.4l9.8-6.5l1.5,10.4c0,0.2,0,0.3-0.1,0.4c-1.1-0.7-2.9-0.4-4.2,0.8
				c-1.4,1.2-1.8,3-0.8,3.9c1,0.9,3,0.6,4.4-0.6c1-0.9,1.5-2,1.3-2.9c0,0.1,0,0.1,0,0.2l-1.7-12.6l-0.7-4
				C329.2,181.2,329.1,181.1,329.1,181.1L329.1,181.1z M329,182.9l0.2,1.4l-9.9,6.5l-0.2-1.4L329,182.9L329,182.9z"/>
			<path class="st14" d="M109.5,187.6c-1.4,1.2-1.4,3.2-1.1,5.4c0.2,1.5,1,2.9,1.7,4.2c-1.4,2.1-3,4.3-2.8,6.9
				c0.2,4.1,2.8,6.3,6.3,6.6c1,0.1,2.1-0.1,3-0.6l1.3,2.5c0.8,1.5,0.9,3-0.9,3.7c-1,0.4-1.6,0.2-1.9,0.1c0.7-0.3,1.2-0.9,1.2-1.7
				c0-1-0.8-1.8-1.8-1.8c-0.7,0-1.4,0.4-1.7,1.1l0,0c0,0,0,0,0,0c-0.3,0.8-0.2,1.8,0.9,2.6c1.8,1.2,4,0.8,5.1-0.4
				c1-1.2,0.8-2.6,0.3-3.5l-1.7-3.3c0.3-0.2,0.5-0.5,0.8-0.8c1-1.4,1.6-3.2,0.2-5.2c-1.2-1.9-2.9-2.4-4.4-2.1
				c-0.3,0.1-0.6,0.1-0.8,0.2l0.2-0.1l-1.1-2.1c0.8-1.5,1.5-3,1.4-4.7C113.4,189.5,111.4,188.3,109.5,187.6L109.5,187.6z
				 M111.2,190.5L111.2,190.5c0,0,0.1,0,0.2,0c0.2,0,0.3,0.2,0.3,0.4c0.1,0.4,0.2,0.8,0.1,1.1c-0.1,1.5-0.1,2.9-1.2,4.1
				c-0.7-2.1-0.9-3.8-0.4-4.7C110.5,190.9,110.7,190.5,111.2,190.5L111.2,190.5z M111.7,200.4l0.8,1.5l0.2-0.1
				c-1.1,0.6-1.6,1.7-1.6,2.9c-0.1,2.1,1.2,3.5,3.5,3.9c0.6,0.1,0.9-0.4,0.2-0.6c-1.7-0.6-2-1.4-1.7-2.5c0.1-0.5,0.4-0.9,0.7-1.2
				l2.4,4.6c-0.5,0.3-1,0.5-1.6,0.5c-3,0.4-3.9-0.9-4.5-2.4c-0.9-2.4,0.3-4.4,1.4-6.3C111.5,200.7,111.6,200.5,111.7,200.4
				L111.7,200.4z M115.3,203.7c0.3,0,0.5,0,0.8,0.1c1.4,0.4,1.6,1.9,1.4,3.2c-0.1,0.5-0.3,1-0.6,1.3l-2.3-4.5
				C114.8,203.7,115.1,203.7,115.3,203.7L115.3,203.7z"/>
			<path class="st15" d="M144.1,204.5c-0.1,0-0.2,0.3-0.2,0.5l2.2,14.8c0,0.2,0,0.3-0.1,0.4c-1.1-0.7-2.9-0.4-4.2,0.8
				c-1.4,1.2-1.8,3-0.8,3.9c1,0.9,3,0.6,4.4-0.6c1-0.9,1.5-2,1.3-2.9c0,0.1,0,0.1,0,0.2l-1.1-8.1c-0.1-0.5,0.1-0.5,0.4-0.4l2.3,1
				c1.8,0.9,3.6,1.6,2.7,6.1c-0.1,0.3-0.1,1.2,0.3,0.4c0.7-1.2,0.4-3.5,0.1-4.6c0-0.1-0.2-0.5-0.3-0.7c-0.1-0.3-0.3-0.7-0.2-1.2
				c0-0.1,0-0.6,0-0.7c-0.8-4.5-3.5-5-4.7-6.1c-0.7-0.6-1.4-1.4-1.8-2.3C144.3,204.6,144.2,204.5,144.1,204.5L144.1,204.5z
				 M145.2,208.5c0.1,0,0.4,0.1,0.5,0.2c1.5,0.6,2.7,1.4,3.6,2.4c0.9,0.9,0.9,1.8,1.1,2.5c0.1,0.5-0.5,0.2-0.7,0.1
				c-0.9-1-2.1-1.6-3.1-2.5c-0.7-0.6-1.4-1.4-1.5-2.3C145,208.6,145.1,208.5,145.2,208.5L145.2,208.5z"/>
		</g>
	</g>
	<g>
		<path class="st5" d="M119.1,272.7c-12.9,0-25.5-9.4-38.7-28.6c-1.2-1.8-3.4-4.4-6-7.4c-9.1-10.8-21.6-25.6-23.3-40.8
			c-2.2-19.6,6.1-36.9,22.7-47.5c8.8-5.6,35.7-22.7,56.1,0.1c10.4,11.5,7,28.2,4.5,40.4c-0.9,4.6-2,9.7-1.6,12
			c0.7,4.4,4.1,10.3,7.4,16c3.2,5.5,6.5,11.3,8,16.8c1.5,5.4,6.1,21.9-11.3,33C130.9,270.7,124.9,272.7,119.1,272.7z M105.2,151.3
			c-6.4,0-14,3.1-23.7,9.2c-12,7.7-17.8,19.7-16.2,33.9c1.2,10.9,12.5,24.3,20,33.2c2.8,3.3,5.2,6.2,6.8,8.5
			c20.3,29.5,30.8,22.8,37.1,18.8c6.3-4,7.7-8.4,5.2-17.1c-1.1-3.8-3.9-8.8-6.7-13.5c-3.9-6.8-8-13.9-9.1-20.9
			c-0.8-4.8,0.4-10.5,1.7-17.1c2.1-10.2,4.4-21.9-1.1-28.1C115.2,153.5,110.7,151.3,105.2,151.3z"/>
		<path class="st5" d="M50.6,189.4c-0.3,0-0.7,0-1,0c-3.6-0.2-6.9-1.8-9.4-4.3c-2.6-2.7-4-6.3-3.8-10c0.5-7.3,7.2-12.9,15-12.4h0
			c7.8,0.5,13.7,6.9,13.2,14.3c-0.2,3.7-2.1,7.1-5.1,9.4C57,188.3,53.9,189.4,50.6,189.4z M50.7,177L50.7,177L50.7,177z M50.2,177
			L50.2,177L50.2,177z M50.5,175.4l-0.1,1.3c0.1-0.2,0.2-0.4,0.2-0.6S50.6,175.5,50.5,175.4z M50.5,175.4c-0.1,0.2-0.2,0.4-0.2,0.6
			s0,0.5,0.1,0.7L50.5,175.4z M50.8,175.1L50.8,175.1L50.8,175.1z"/>
		<path class="st5" d="M58.1,174.1c-3.4,0-6.8-1.1-9.6-3.3c-3.1-2.3-5.2-5.6-6-9.1c-0.9-4-0.1-8,2.3-11.1c4.6-6.1,13.8-7,20.5-2
			c6.7,5,8.3,14.1,3.7,20.3c-2.3,3.1-6,5-10.1,5.3C58.7,174.1,58.4,174.1,58.1,174.1z"/>
		<path class="st5" d="M71.3,161.7c-2.1,0-4.2-0.5-6.2-1.4c-3.5-1.6-6.4-4.6-8.1-8.3c-1.7-3.7-2.1-7.8-1-11.6
			c1.2-4.1,3.9-7.5,7.7-9.2c3.7-1.7,8.1-1.7,12,0.1c3.5,1.6,6.4,4.6,8.1,8.3c3.7,8,0.7,17.3-6.7,20.7h0
			C75.2,161.3,73.2,161.7,71.3,161.7z M69.6,144.4c-0.1,0.4-0.1,0.9,0.3,1.6c0.3,0.7,0.8,1.1,1.1,1.3c0.1-0.4,0.1-0.9-0.3-1.6
			C70.4,145,69.9,144.6,69.6,144.4z"/>
		<path class="st5" d="M90.3,151.3c-3.1,0-6.2-0.9-8.9-2.8c-3.6-2.4-6.3-6.2-7.5-10.6c-1.2-4.4-0.9-9,0.9-13c2-4.3,5.6-7.5,9.9-8.7
			c4.3-1.2,9.1-0.4,13,2.2c3.6,2.4,6.3,6.2,7.5,10.6c2.7,9.5-2.2,19.2-10.8,21.6C93.1,151.1,91.7,151.3,90.3,151.3z M88.8,130
			c-0.1,0-0.1,0-0.2,0c-0.4,0.1-0.7,0.7-0.8,0.9c-0.4,0.9-0.4,2-0.1,3.1c0.3,1.1,1,2.1,1.8,2.6c0.2,0.1,0.7,0.5,1.2,0.3h0
			c0.7-0.2,1.5-1.9,0.9-4c-0.3-1.1-1-2.1-1.8-2.6C89.5,130.3,89.1,130,88.8,130z"/>
		<path class="st5" d="M115.5,149.4c-1,0-2.1-0.1-3.2-0.3c-5.2-0.9-9.7-4-12.6-8.6c-2.8-4.4-3.8-9.7-2.9-15
			c0.9-5.3,3.7-9.9,7.8-13.1c4.3-3.3,9.6-4.7,14.8-3.7c10.5,1.8,17.4,12.4,15.5,23.6C133.2,142.3,124.8,149.4,115.5,149.4z
			 M116.3,122.7c-1.3,0-2.3,0.6-2.9,1c-1.3,1-2.2,2.5-2.5,4.3c-0.3,1.8,0,3.5,0.9,4.9c0.4,0.7,1.4,1.9,3,2.1
			c2.7,0.5,5.5-1.9,6.1-5.3c0.6-3.3-1.2-6.5-3.9-7C116.8,122.7,116.5,122.7,116.3,122.7z"/>
	</g>
	<g>
		<g>
			<path class="st16" d="M128.1,155.1c12,13.4-0.5,38.2,1.2,48.8c1.7,10.5,12.7,23.4,15.6,33.7c2.9,10.3,1.9,18.6-8.3,25.1
				s-24.8,11.2-46.8-20.8c-5.9-8.5-26.1-27.7-28.1-44.9c-2-17.3,5.3-31.7,19.4-40.7C95.3,147.2,113.6,138.9,128.1,155.1z"/>
			
				<ellipse transform="matrix(6.771649e-02 -0.9977 0.9977 6.771649e-02 -127.0456 219.5515)" class="st16" cx="54" cy="177.8" rx="6.2" ry="7"/>
			<path class="st16" d="M66.8,166.2c-2.3,3-7,3.3-10.5,0.6c-3.5-2.7-4.6-7.3-2.3-10.3c2.3-3,7-3.3,10.5-0.6
				C68.1,158.6,69.1,163.2,66.8,166.2z"/>
			<path class="st16" d="M77.5,155.7c-3.8,1.7-8.6-0.5-10.6-4.9c-2.1-4.5-0.6-9.5,3.2-11.3c3.8-1.7,8.6,0.5,10.6,4.9
				C82.7,148.9,81.3,154,77.5,155.7z"/>
			
				<ellipse transform="matrix(0.9623 -0.2721 0.2721 0.9623 -33.2969 30.4097)" class="st16" cx="93" cy="135.3" rx="9.1" ry="10.8"/>
			
				<ellipse transform="matrix(0.1732 -0.9849 0.9849 0.1732 -29.972 225.6089)" class="st16" cx="119.4" cy="130.7" rx="13.4" ry="12.2"/>
		</g>
		<g>
			<g>
				<path class="st0" d="M124.6,153.3c12,13.4-0.5,38.2,1.2,48.8c1.7,10.5,12.7,23.4,15.6,33.7c2.9,10.3,1.9,18.6-8.3,25.1
					c-10.1,6.5-24.8,11.2-46.8-20.8c-5.9-8.5-26.1-27.7-28.1-44.9c-2-17.3,5.3-31.7,19.4-40.7C91.8,145.4,110.1,137.1,124.6,153.3z"
					/>
				
					<ellipse transform="matrix(6.771649e-02 -0.9977 0.9977 6.771649e-02 -128.5481 214.477)" class="st0" cx="50.5" cy="176" rx="6.2" ry="7"/>
				<path class="st0" d="M63.4,164.5c-2.3,3-7,3.3-10.5,0.6c-3.5-2.7-4.6-7.3-2.3-10.3c2.3-3,7-3.3,10.5-0.6
					C64.6,156.9,65.6,161.5,63.4,164.5z"/>
				<path class="st0" d="M74,154c-3.8,1.7-8.6-0.5-10.6-4.9c-2.1-4.5-0.6-9.5,3.2-11.3c3.8-1.7,8.6,0.5,10.6,4.9
					C79.2,147.2,77.8,152.2,74,154z"/>
				
					<ellipse transform="matrix(0.9623 -0.2721 0.2721 0.9623 -32.9561 29.4011)" class="st0" cx="89.5" cy="133.5" rx="9.1" ry="10.8"/>
				
					<ellipse transform="matrix(0.1732 -0.9849 0.9849 0.1732 -31.1311 220.7616)" class="st0" cx="115.9" cy="128.9" rx="13.4" ry="12.2"/>
			</g>
		</g>
	</g>
	<g>
		<path class="st18" d="M85.4,159.9c-4.3,4.8-3.7,11.7-1.5,19.2c1.5,5.1,4.5,9.6,7.8,14c-3.9,8-8.5,16.3-6.9,25.3
			c2.5,14.3,12.6,20.8,24.8,20.3c3.5-0.1,7.2-1.2,10.3-3.5l5.6,8.1c3.4,5,4.4,10-1.5,13.3c-3.2,1.8-5.5,1.4-6.6,1
			c2.4-1.2,3.7-3.7,3.4-6.4c-0.4-3.5-3.6-6-7.1-5.5c-2.6,0.3-4.7,2.2-5.3,4.7l0,0c0,0.1,0,0.1,0,0.2c-0.7,3,0.2,6.4,4.3,8.6
			c6.8,3.6,14.4,1.1,17.6-3.5c3.1-4.5,1.5-9.5-0.3-12.2l-7.3-10.7c0.9-0.9,1.7-2,2.4-3.3c3-5.3,4.2-11.7-1.5-18.3
			c-5.1-6-11.1-7.2-16.3-5.6c-1,0.3-1.9,0.7-2.7,1.1l0.7-0.4l-4.8-7c2.3-5.7,3.9-11.2,2.9-16.8C100,164.8,92.3,161.4,85.4,159.9
			L85.4,159.9z M92.6,169L92.6,169c0.2,0,0.4,0,0.6,0c0.5,0,1,0.6,1.2,1.2c0.5,1.4,0.9,2.8,1,3.9c0.3,5.1,0.7,10.2-2.5,14.7
			c-3.4-7.1-4.9-12.7-3.4-16.2C90.2,170.8,90.8,169.2,92.6,169L92.6,169z M98.5,203.4l3.3,5l0.6-0.4c-3.4,2.7-4.8,6.6-4.5,10.9
			c0.5,7.3,5.7,11.8,13.8,12.3c2.1,0.1,3.1-1.7,0.6-2.2c-6.3-1.3-7.6-4.1-7.2-8.1c0.2-1.8,0.8-3.4,1.8-4.6l10.4,15.2
			c-1.5,1.2-3.3,2-5.4,2.6c-10.3,2.8-14.1-1.5-16.7-6.3c-4.3-7.9-0.9-15.5,2.4-22.6C97.9,204.6,98.2,204,98.5,203.4L98.5,203.4z
			 M112.6,213.3c0.9-0.1,1.9-0.1,2.9,0c5,0.7,6.5,5.8,6.2,10.5c-0.1,1.9-0.7,3.6-1.7,5l-9.9-14.8
			C110.8,213.7,111.7,213.4,112.6,213.3L112.6,213.3z"/>
	</g>
	<g id="TREK_MUSIC">
		<g class="st19">
			<path class="st16" d="M164.2,195.3c0.8,0,1.6-0.2,2.3-0.5c0.7-0.3,1.3-0.7,1.9-1.3c0.5-0.6,0.9-1.2,1.2-1.9
				c0.3-0.7,0.4-1.5,0.4-2.4l0.2-31.9h9.2c0.8,0,1.6-0.2,2.4-0.5c0.7-0.3,1.4-0.7,1.9-1.3c0.6-0.6,1-1.2,1.3-1.9
				c0.3-0.7,0.5-1.5,0.5-2.4c0-0.8-0.2-1.6-0.5-2.4c-0.3-0.7-0.8-1.4-1.3-1.9c-0.6-0.5-1.2-1-2-1.3s-1.5-0.5-2.4-0.5h-30.6
				c-0.8,0-1.6,0.2-2.4,0.5c-0.7,0.3-1.4,0.8-1.9,1.3c-0.6,0.5-1,1.2-1.3,1.9c-0.3,0.7-0.5,1.5-0.5,2.4c0,0.9,0.2,1.7,0.5,2.4
				c0.3,0.7,0.8,1.4,1.3,1.9c0.5,0.5,1.2,1,1.9,1.3c0.7,0.3,1.5,0.5,2.4,0.5h9.4l0.1,31.9c0,0.8,0.1,1.6,0.4,2.4
				c0.3,0.7,0.7,1.4,1.2,1.9c0.5,0.5,1.1,1,1.9,1.3C162.5,195.1,163.3,195.3,164.2,195.3z"/>
			<path class="st16" d="M212.2,181.7l7.8,11.3c0.5,0.6,1.1,1.1,1.8,1.5c0.7,0.4,1.4,0.6,2.1,0.7c0.7,0.1,1.5,0,2.2-0.2
				c0.7-0.2,1.4-0.6,2.1-1.1c0.7-0.5,1.2-1.1,1.6-1.8c0.4-0.7,0.6-1.4,0.7-2.2c0.1-0.7,0-1.5-0.2-2.2c-0.2-0.7-0.6-1.4-1.1-2l-6.3-8
				c0.5-0.4,1-0.7,1.4-1.1c1.8-1.6,3.3-3.5,4.3-5.7c1.1-2.2,1.6-4.6,1.6-7.3c0-2.6-0.5-5.1-1.6-7.4c-1.1-2.3-2.5-4.2-4.3-5.9
				c-1.8-1.7-3.9-3-6.3-4c-2.4-1-4.9-1.4-7.5-1.4h-15c-0.8,0-1.4,0.1-2,0.2c-0.5,0.1-0.9,0.3-1.2,0.5c-0.3,0.2-0.5,0.5-0.6,0.8
				c-0.1,0.3-0.2,0.7-0.2,1c0,0.6,0.1,1.2,0.2,1.9c0.2,0.7,0.3,1.4,0.3,2v37.9c0,0.8,0.2,1.6,0.5,2.4c0.3,0.7,0.7,1.4,1.3,1.9
				c0.5,0.6,1.2,1,1.9,1.3c0.7,0.3,1.5,0.5,2.4,0.5c0.8,0,1.6-0.2,2.4-0.5c0.7-0.3,1.4-0.7,1.9-1.3c0.5-0.6,1-1.2,1.3-1.9
				c0.3-0.7,0.5-1.5,0.5-2.4v-7.5h6.4C211,181.8,211.6,181.8,212.2,181.7z M203.8,171.4v-15.7h6.6c1.1,0,2.1,0.2,3.1,0.7
				c1,0.4,1.8,1,2.6,1.8c0.7,0.8,1.3,1.6,1.7,2.6c0.4,1,0.6,2,0.6,3.1c0,1.1-0.2,2.1-0.6,3c-0.4,0.9-1,1.7-1.7,2.4
				c-0.7,0.7-1.6,1.2-2.6,1.5c-1,0.4-2,0.5-3.1,0.5H203.8z"/>
			<path class="st16" d="M237.3,151.9v37c0,0.9,0.2,1.8,0.5,2.6c0.3,0.8,0.7,1.5,1.3,2c0.5,0.6,1.2,1,2,1.3c0.8,0.3,1.6,0.5,2.6,0.5
				h24.5c0.8,0,1.6-0.2,2.4-0.5c0.8-0.3,1.4-0.7,2-1.3c0.6-0.5,1-1.2,1.3-1.9c0.3-0.7,0.5-1.5,0.5-2.4c0-0.9-0.2-1.7-0.5-2.5
				c-0.3-0.7-0.8-1.4-1.3-1.9c-0.6-0.5-1.2-0.9-2-1.2c-0.8-0.3-1.6-0.4-2.4-0.4h-18.8v-7.3h14c1.2,0,2.3-0.3,3.2-0.9
				c0.9-0.6,1.6-1.5,2-2.6c0.4-0.9,0.5-1.8,0.4-2.8c-0.1-0.9-0.5-1.7-1-2.4c-0.5-0.7-1.2-1.3-2-1.7c-0.8-0.4-1.7-0.7-2.6-0.7h-14v-8
				h18.9c1.3,0,2.4-0.3,3.3-0.8c0.9-0.6,1.5-1.3,2-2.1c0.4-0.9,0.6-1.8,0.6-2.8c0-1-0.2-1.9-0.7-2.8c-0.4-0.9-1.1-1.6-2-2.1
				c-0.9-0.6-2-0.8-3.3-0.8h-27.6c-0.8,0-1.4,0.1-1.9,0.2c-0.5,0.1-0.9,0.3-1.2,0.5s-0.5,0.5-0.6,0.8c-0.1,0.3-0.2,0.7-0.2,1
				c0,0.6,0.1,1.3,0.3,2C237.2,150.5,237.3,151.2,237.3,151.9z"/>
			<path class="st16" d="M312.9,194.6c0.9,0.5,1.9,0.8,2.9,0.8c1.3,0,2.4-0.3,3.3-1c0.9-0.6,1.6-1.4,2.1-2.3
				c0.5-1.1,0.8-2.1,0.8-3.1c0-1-0.4-2-1.1-3.1l-13.2-20.3l11.9-9.5c0.6-0.5,1-1,1.4-1.6c0.3-0.6,0.6-1.2,0.7-1.8
				c0.1-0.7,0.2-1.3,0.1-2c-0.1-0.7-0.2-1.4-0.5-2c-0.1-0.4-0.3-0.7-0.6-1.1c-0.3-0.3-0.6-0.6-0.9-0.8c-0.3-0.2-0.7-0.5-1-0.6
				c-0.4-0.2-0.7-0.3-1.1-0.4c-1-0.4-2.1-0.4-3.1-0.2c-1.1,0.2-2,0.7-2.9,1.5l-17.8,15.8l0-11.5c0-1.4-0.3-2.5-0.8-3.4
				c-0.5-0.8-1.2-1.5-2-2c-0.8-0.5-1.7-0.8-2.7-0.9c-1-0.1-2.1-0.2-3.2-0.2c-0.8,0-1.4,0.1-2,0.2c-0.5,0.1-0.9,0.3-1.2,0.5
				c-0.3,0.2-0.5,0.5-0.6,0.8c-0.1,0.3-0.2,0.6-0.2,1c0,0.6,0.1,1.2,0.3,1.9c0.2,0.7,0.3,1.4,0.3,2v37.4c0,0.9,0.1,1.8,0.4,2.6
				c0.3,0.8,0.7,1.5,1.2,2c0.5,0.6,1.2,1,1.9,1.4c0.7,0.3,1.6,0.5,2.5,0.5c0.9,0,1.7-0.2,2.4-0.5c0.7-0.3,1.4-0.8,1.9-1.4
				c0.5-0.6,0.9-1.3,1.2-2.1c0.3-0.8,0.4-1.6,0.4-2.5l-0.1-12.2l5-4.1l11.9,19.5C311.2,193.2,312,194,312.9,194.6z"/>
			<path class="st16" d="M202.9,210.5c-0.2-0.6-0.5-1.2-0.9-1.6c-0.4-0.5-0.9-0.9-1.6-1.1c-0.6-0.3-1.5-0.4-2.5-0.4
				c-0.7,0-1.3,0-1.8,0.1c-0.5,0.1-0.9,0.2-1.2,0.4c-0.3,0.2-0.6,0.4-0.8,0.6c-0.2,0.2-0.4,0.4-0.5,0.7c-0.1,0.2-0.3,0.5-0.7,1
				c-0.3,0.5-0.9,1.3-1.7,2.3c-0.8,1.1-2,2.5-3.5,4.2c-1.5,1.8-3.4,4-5.8,6.7l-12.2-14.2c-0.4-0.4-0.8-0.8-1.2-1
				c-0.4-0.2-0.8-0.4-1.2-0.5c-0.5-0.1-1-0.2-1.6-0.2c-0.6,0-1.3,0-2.2,0c-0.7,0-1.3,0.1-1.7,0.2c-0.5,0.1-0.8,0.3-1.1,0.4
				c-0.3,0.2-0.4,0.4-0.5,0.7c-0.1,0.3-0.1,0.6-0.1,0.9c0,0.6,0.1,1.2,0.2,1.7c0.2,0.5,0.2,1.1,0.2,1.7c0,2.6,0,5.2,0,7.9
				c0,2.7,0,5.5,0,8.2c0,2.8,0,5.5,0,8.2c0,2.7,0,5.3,0,7.8c0,0.7,0.1,1.4,0.4,2c0.3,0.6,0.6,1.2,1.1,1.6c0.5,0.5,1,0.8,1.6,1.1
				c0.6,0.3,1.3,0.4,2,0.4c0.7,0,1.4-0.1,2-0.4c0.6-0.3,1.2-0.6,1.6-1.1c0.5-0.5,0.8-1,1.1-1.6c0.3-0.6,0.4-1.3,0.4-2
				c0-1.6,0-3.1,0-4.7c0-1.6,0-3.3,0-5s0-3.6,0-5.6c0-2,0-4.2,0-6.5l7.3,9.1c0.4,0.5,0.8,0.9,1.1,1.2c0.3,0.4,0.6,0.6,0.9,0.9
				c0.3,0.2,0.6,0.4,0.9,0.5c0.3,0.1,0.6,0.2,1,0.2c0.7,0,1.4-0.3,2-0.8c0.6-0.5,1.3-1.2,1.9-2l7.1-9V245c0,0.9,0.2,1.7,0.5,2.4
				c0.3,0.7,0.8,1.2,1.3,1.6c0.5,0.4,1.1,0.7,1.7,0.9c0.6,0.2,1.1,0.3,1.6,0.3c0.7,0,1.4-0.1,2.1-0.4c0.6-0.3,1.2-0.6,1.6-1.1
				c0.5-0.5,0.8-1,1.1-1.6c0.3-0.6,0.4-1.3,0.4-2v-28.8c0-0.5,0-1.1,0-1.8c0-0.6,0-1.3-0.1-1.9C203.2,211.8,203.1,211.1,202.9,210.5
				z"/>
			<path class="st16" d="M246.2,210c-0.4-0.7-1-1.3-1.7-1.6c-0.7-0.4-1.5-0.6-2.4-0.8c-0.9-0.1-1.8-0.2-2.7-0.2
				c-0.7,0-1.2,0.1-1.7,0.1c-0.4,0.1-0.8,0.2-1,0.4c-0.3,0.2-0.4,0.4-0.5,0.7c-0.1,0.3-0.1,0.6-0.1,0.9c0,0.5,0.1,1.1,0.2,1.6
				c0.1,0.6,0.2,1.1,0.2,1.7l0.1,20c0,1.1-0.2,2.1-0.7,3c-0.5,0.9-1.1,1.8-1.9,2.5c-0.8,0.7-1.7,1.3-2.8,1.7
				c-1.1,0.4-2.2,0.6-3.4,0.6c-1.3,0-2.5-0.2-3.6-0.6c-1.1-0.4-2-1-2.7-1.7c-0.7-0.7-1.3-1.5-1.7-2.5c-0.4-0.9-0.6-1.9-0.6-3v-20
				c0-1.2-0.3-2.1-0.7-2.8c-0.4-0.7-1-1.3-1.6-1.7c-0.7-0.4-1.4-0.7-2.3-0.8c-0.9-0.1-1.8-0.2-2.8-0.2c-0.7,0-1.2,0.1-1.7,0.1
				c-0.4,0.1-0.8,0.2-1,0.4c-0.3,0.2-0.4,0.4-0.5,0.7c-0.1,0.3-0.2,0.6-0.2,0.9c0,0.5,0.1,1.1,0.2,1.6c0.1,0.6,0.2,1.1,0.3,1.7l0,20
				c0,2.5,0.5,4.9,1.5,7.1c1,2.2,2.3,4.1,4.1,5.8c1.7,1.6,3.7,2.9,6,3.9c2.3,0.9,4.8,1.4,7.4,1.4c1.7,0,3.4-0.2,5-0.7
				c1.6-0.4,3.1-1.1,4.5-1.8c1.4-0.8,2.7-1.7,3.8-2.9c1.2-1.1,2.1-2.3,3-3.7c0.8-1.4,1.5-2.8,2-4.3c0.5-1.5,0.7-3.1,0.7-4.8l0-20
				C246.8,211.6,246.6,210.7,246.2,210z"/>
			<path class="st16" d="M278,230.2c-0.9-1-2-1.8-3.2-2.6c-1.2-0.7-2.4-1.4-3.6-2.1c-1.2-0.6-2.4-1.2-3.6-1.7
				c-1.2-0.5-2.3-1.1-3.2-1.6c-0.9-0.5-1.7-1-2.2-1.6c-0.6-0.5-0.9-1.1-0.9-1.7c0-0.4,0.1-0.8,0.4-1.2c0.3-0.4,0.6-0.6,1-0.9
				c0.4-0.2,0.8-0.4,1.3-0.5c0.5-0.1,1-0.2,1.4-0.2c0.9,0,1.7,0.3,2.5,0.8c0.8,0.5,1.6,1.2,2.5,2c0.5,0.4,0.9,0.7,1.3,1
				c0.4,0.2,0.8,0.4,1.1,0.5s0.7,0.2,1.1,0.2c0.4,0,0.7,0,1.1,0c0.7,0,1.4-0.1,2-0.2c0.6-0.1,1.1-0.4,1.6-0.7c0.4-0.3,0.8-0.8,1-1.3
				c0.3-0.5,0.4-1.2,0.4-2c0-0.9-0.2-1.7-0.6-2.5c-0.4-0.8-1-1.5-1.7-2.2c-0.7-0.7-1.5-1.3-2.4-1.9s-1.9-1-2.9-1.4
				c-1-0.4-2-0.7-3.1-0.9c-1-0.2-2-0.3-2.9-0.3c-2.3,0-4.3,0.3-6.1,0.9c-1.8,0.6-3.4,1.4-4.7,2.5c-1.3,1.1-2.3,2.4-3,3.9
				c-0.7,1.5-1,3.2-1,5c0,1.6,0.3,2.9,0.8,4.2c0.5,1.2,1.2,2.3,2.1,3.2c0.9,1,1.9,1.8,3,2.5c1.1,0.7,2.3,1.4,3.4,2
				c1.2,0.6,2.3,1.1,3.4,1.6c1.1,0.5,2.1,1,3,1.4c0.9,0.5,1.6,0.9,2.1,1.4c0.5,0.5,0.8,1,0.8,1.5c0,0.5-0.1,1-0.4,1.4
				c-0.3,0.4-0.6,0.7-1.1,1c-0.4,0.3-0.9,0.4-1.5,0.6c-0.6,0.1-1.1,0.2-1.7,0.2c-0.5,0-1.1-0.1-1.7-0.2c-0.6-0.1-1.1-0.3-1.7-0.6
				c-0.6-0.2-1.1-0.5-1.5-0.8c-0.5-0.3-0.9-0.6-1.2-1c-0.8-0.7-1.6-1.2-2.4-1.6c-0.7-0.4-1.5-0.6-2.2-0.6c-0.7,0-1.4,0.1-1.9,0.4
				c-0.6,0.3-1,0.6-1.4,1.1c-0.4,0.4-0.7,1-0.9,1.6c-0.2,0.6-0.3,1.2-0.2,1.9c0.1,1.1,0.5,2.1,1.1,3.3c0.6,1.1,1.6,2.2,2.8,3.1
				c1.2,0.9,2.8,1.7,4.6,2.3c1.9,0.6,4.1,0.9,6.6,0.9c1.7,0,3.5-0.3,5.4-0.8c1.8-0.5,3.5-1.3,5.1-2.4c1.5-1.1,2.8-2.4,3.8-4
				c1-1.6,1.5-3.5,1.5-5.6c0-1.5-0.3-2.8-0.9-4C279.7,232.3,279,231.2,278,230.2z"/>
			<path class="st16" d="M295.5,208.4c-0.7-0.4-1.4-0.6-2.3-0.8c-0.9-0.1-1.8-0.2-2.8-0.2c-0.7,0-1.2,0.1-1.7,0.1
				c-0.4,0.1-0.8,0.2-1,0.4c-0.3,0.2-0.4,0.4-0.5,0.7c-0.1,0.3-0.1,0.6-0.1,0.9c0,0.5,0.1,1.1,0.2,1.6c0.1,0.6,0.2,1.1,0.2,1.7v32.1
				c0,0.7,0.1,1.4,0.4,2c0.3,0.6,0.6,1.2,1.1,1.7c0.5,0.5,1,0.9,1.6,1.2c0.6,0.3,1.3,0.4,2.1,0.4c0.7,0,1.4-0.1,2.1-0.4
				c0.6-0.3,1.2-0.7,1.6-1.1c0.5-0.5,0.8-1,1.1-1.7c0.3-0.6,0.4-1.3,0.4-2v-32.3c-0.1-1.1-0.3-2-0.7-2.6
				C296.7,209.3,296.1,208.8,295.5,208.4z"/>
			<path class="st16" d="M340.7,235.8c-0.4-0.4-0.9-0.7-1.4-0.9c-0.5-0.2-1-0.3-1.6-0.3c-0.5,0-1.1,0.1-1.6,0.2
				c-0.5,0.1-1,0.3-1.5,0.6c-0.7,0.6-1.4,1.1-2.1,1.7c-0.7,0.5-1.3,1-2,1.5c-0.7,0.4-1.5,0.8-2.3,1.1c-0.8,0.3-1.8,0.4-2.9,0.4
				c-1.5,0-2.9-0.3-4.3-0.9c-1.3-0.6-2.5-1.4-3.5-2.4c-1-1-1.8-2.2-2.4-3.6c-0.6-1.4-0.9-2.8-0.9-4.3c0-1.5,0.3-3,0.9-4.3
				c0.6-1.4,1.4-2.6,2.4-3.6c1-1,2.2-1.8,3.5-2.4c1.3-0.6,2.8-0.9,4.3-0.9c0.9,0,1.8,0.1,2.6,0.3c0.8,0.2,1.5,0.5,2.1,0.8
				c0.6,0.4,1.2,0.8,1.8,1.2c0.5,0.4,1.1,0.9,1.6,1.4c0.7,0.6,1.3,0.9,2,1.1c0.7,0.2,1.3,0.3,1.9,0.2c0.6,0,1.2-0.2,1.7-0.5
				c0.5-0.3,1-0.6,1.4-1c0.5-0.5,0.9-1.1,1.2-1.8c0.3-0.7,0.4-1.3,0.3-1.8c0-0.7-0.2-1.4-0.4-2c-0.3-0.6-0.6-1.2-1.1-1.7
				c-1.1-1.2-2.1-2.2-3.2-3c-1.1-0.8-2.3-1.5-3.5-2.1c-1.2-0.5-2.5-0.9-3.9-1.2c-1.4-0.2-2.8-0.4-4.5-0.4c-2,0-3.9,0.3-5.7,0.8
				c-1.8,0.5-3.5,1.2-5.1,2.2c-1.6,0.9-3,2-4.3,3.3c-1.3,1.3-2.4,2.7-3.4,4.3c-0.9,1.6-1.7,3.3-2.2,5.1c-0.5,1.8-0.8,3.7-0.8,5.7
				c0,3,0.6,5.7,1.7,8.3c1.1,2.6,2.7,4.9,4.6,6.8c1.9,1.9,4.2,3.5,6.8,4.6c2.6,1.1,5.4,1.7,8.3,1.7c1.7,0,3.3-0.1,4.7-0.4
				c1.5-0.3,2.8-0.7,4.1-1.3c1.3-0.6,2.4-1.3,3.5-2.2c1.1-0.9,2.2-1.9,3.2-3.2c0.5-0.5,0.9-1.1,1.2-1.8c0.2-0.6,0.3-1.3,0.3-1.9
				C342.4,238,341.8,236.8,340.7,235.8z"/>
		</g>
		<g>
			<g>
				<path class="st5" d="M160.7,193.6c0.8,0,1.6-0.2,2.3-0.5c0.7-0.3,1.3-0.7,1.9-1.3c0.5-0.6,0.9-1.2,1.2-1.9
					c0.3-0.7,0.4-1.5,0.4-2.4l0.2-31.9h9.2c0.8,0,1.6-0.2,2.4-0.5c0.7-0.3,1.4-0.7,1.9-1.3c0.6-0.6,1-1.2,1.3-1.9
					c0.3-0.7,0.5-1.5,0.5-2.4c0-0.8-0.2-1.6-0.5-2.4c-0.3-0.7-0.8-1.4-1.3-1.9c-0.6-0.5-1.2-1-2-1.3c-0.7-0.3-1.5-0.5-2.4-0.5h-30.6
					c-0.8,0-1.6,0.2-2.4,0.5c-0.7,0.3-1.4,0.8-1.9,1.3c-0.6,0.5-1,1.2-1.3,1.9c-0.3,0.7-0.5,1.5-0.5,2.4c0,0.9,0.2,1.7,0.5,2.4
					c0.3,0.7,0.8,1.4,1.3,1.9c0.5,0.5,1.2,1,1.9,1.3c0.7,0.3,1.5,0.5,2.4,0.5h9.4l0.1,31.9c0,0.8,0.1,1.6,0.4,2.4
					c0.3,0.7,0.7,1.4,1.2,1.9c0.5,0.5,1.1,1,1.9,1.3C159,193.4,159.8,193.6,160.7,193.6z"/>
				<path class="st5" d="M208.8,180l7.8,11.3c0.5,0.6,1.1,1.1,1.8,1.5c0.7,0.4,1.4,0.6,2.1,0.7c0.7,0.1,1.5,0,2.2-0.2
					c0.7-0.2,1.4-0.6,2.1-1.1c0.7-0.5,1.2-1.1,1.6-1.8c0.4-0.7,0.6-1.4,0.7-2.2c0.1-0.7,0-1.5-0.2-2.2c-0.2-0.7-0.6-1.4-1.1-2
					l-6.3-8c0.5-0.4,1-0.7,1.4-1.1c1.8-1.6,3.3-3.5,4.3-5.7c1.1-2.2,1.6-4.6,1.6-7.3c0-2.6-0.5-5.1-1.6-7.4
					c-1.1-2.3-2.5-4.2-4.3-5.9c-1.8-1.7-3.9-3-6.3-4c-2.4-1-4.9-1.4-7.5-1.4h-15c-0.8,0-1.4,0.1-2,0.2c-0.5,0.1-0.9,0.3-1.2,0.5
					c-0.3,0.2-0.5,0.5-0.6,0.8c-0.1,0.3-0.2,0.7-0.2,1c0,0.6,0.1,1.2,0.2,1.9c0.2,0.7,0.3,1.4,0.3,2v37.9c0,0.8,0.2,1.6,0.5,2.4
					c0.3,0.7,0.7,1.4,1.3,1.9c0.5,0.6,1.2,1,1.9,1.3c0.7,0.3,1.5,0.5,2.4,0.5c0.8,0,1.6-0.2,2.4-0.5c0.7-0.3,1.4-0.7,1.9-1.3
					c0.5-0.6,1-1.2,1.3-1.9c0.3-0.7,0.5-1.5,0.5-2.4V180h6.4C207.6,180,208.2,180,208.8,180z M200.3,169.7V154h6.6
					c1.1,0,2.1,0.2,3.1,0.7c1,0.4,1.8,1,2.6,1.8c0.7,0.8,1.3,1.6,1.7,2.6c0.4,1,0.6,2,0.6,3.1c0,1.1-0.2,2.1-0.6,3
					c-0.4,0.9-1,1.7-1.7,2.4c-0.7,0.7-1.6,1.2-2.6,1.5c-1,0.4-2,0.5-3.1,0.5H200.3z"/>
				<path class="st5" d="M233.9,150.2v37c0,0.9,0.2,1.8,0.5,2.6c0.3,0.8,0.7,1.5,1.3,2c0.5,0.6,1.2,1,2,1.3c0.8,0.3,1.6,0.5,2.6,0.5
					h24.5c0.8,0,1.6-0.2,2.4-0.5c0.8-0.3,1.4-0.7,2-1.3c0.6-0.5,1-1.2,1.3-1.9c0.3-0.7,0.5-1.5,0.5-2.4c0-0.9-0.2-1.7-0.5-2.5
					c-0.3-0.7-0.8-1.4-1.3-1.9c-0.6-0.5-1.2-0.9-2-1.2c-0.8-0.3-1.6-0.4-2.4-0.4h-18.8v-7.3h14c1.2,0,2.3-0.3,3.2-0.9
					c0.9-0.6,1.6-1.5,2-2.6c0.4-0.9,0.5-1.8,0.4-2.8c-0.1-0.9-0.5-1.7-1-2.4c-0.5-0.7-1.2-1.3-2-1.7c-0.8-0.4-1.7-0.7-2.6-0.7h-14
					v-8h18.9c1.3,0,2.4-0.3,3.3-0.8c0.9-0.6,1.5-1.3,2-2.1c0.4-0.9,0.6-1.8,0.6-2.8c0-1-0.2-1.9-0.7-2.8c-0.4-0.9-1.1-1.6-2-2.1
					c-0.9-0.6-2-0.8-3.3-0.8h-27.6c-0.8,0-1.4,0.1-1.9,0.2c-0.5,0.1-0.9,0.3-1.2,0.5c-0.3,0.2-0.5,0.5-0.6,0.8
					c-0.1,0.3-0.2,0.7-0.2,1c0,0.6,0.1,1.3,0.3,2C233.7,148.8,233.8,149.5,233.9,150.2z"/>
				<path class="st5" d="M309.4,192.8c0.9,0.5,1.9,0.8,2.9,0.8c1.3,0,2.4-0.3,3.3-1c0.9-0.6,1.6-1.4,2.1-2.3
					c0.5-1.1,0.8-2.1,0.8-3.1c0-1-0.4-2-1.1-3.1l-13.2-20.3l11.9-9.5c0.6-0.5,1-1,1.4-1.6c0.3-0.6,0.6-1.2,0.7-1.8
					c0.1-0.7,0.2-1.3,0.1-2c-0.1-0.7-0.2-1.4-0.5-2c-0.1-0.4-0.3-0.7-0.6-1.1c-0.3-0.3-0.6-0.6-0.9-0.8c-0.3-0.2-0.7-0.5-1-0.6
					c-0.4-0.2-0.7-0.3-1.1-0.4c-1-0.4-2.1-0.4-3.1-0.2c-1.1,0.2-2,0.7-2.9,1.5l-17.8,15.8l0-11.5c0-1.4-0.3-2.5-0.8-3.4
					c-0.5-0.8-1.2-1.5-2-2c-0.8-0.5-1.7-0.8-2.7-0.9c-1-0.1-2.1-0.2-3.2-0.2c-0.8,0-1.4,0.1-2,0.2c-0.5,0.1-0.9,0.3-1.2,0.5
					c-0.3,0.2-0.5,0.5-0.6,0.8c-0.1,0.3-0.2,0.6-0.2,1c0,0.6,0.1,1.2,0.3,1.9c0.2,0.7,0.3,1.4,0.3,2v37.4c0,0.9,0.1,1.8,0.4,2.6
					c0.3,0.8,0.7,1.5,1.2,2c0.5,0.6,1.2,1,1.9,1.4c0.7,0.3,1.6,0.5,2.5,0.5c0.9,0,1.7-0.2,2.4-0.5c0.7-0.3,1.4-0.8,1.9-1.4
					c0.5-0.6,0.9-1.3,1.2-2.1c0.3-0.8,0.4-1.6,0.4-2.5l-0.1-12.2l5-4.1l11.9,19.5C307.7,191.5,308.5,192.3,309.4,192.8z"/>
				<path class="st5" d="M199.4,208.8c-0.2-0.6-0.5-1.2-0.9-1.6c-0.4-0.5-0.9-0.9-1.6-1.1c-0.6-0.3-1.5-0.4-2.5-0.4
					c-0.7,0-1.3,0-1.8,0.1c-0.5,0.1-0.9,0.2-1.2,0.4c-0.3,0.2-0.6,0.4-0.8,0.6c-0.2,0.2-0.4,0.4-0.5,0.7c-0.1,0.2-0.3,0.5-0.7,1
					c-0.3,0.5-0.9,1.3-1.7,2.3c-0.8,1.1-2,2.5-3.5,4.2c-1.5,1.8-3.4,4-5.8,6.7l-12.2-14.2c-0.4-0.4-0.8-0.8-1.2-1
					c-0.4-0.2-0.8-0.4-1.2-0.5c-0.5-0.1-1-0.2-1.6-0.2c-0.6,0-1.3,0-2.2,0c-0.7,0-1.3,0.1-1.7,0.2c-0.5,0.1-0.8,0.3-1.1,0.4
					c-0.3,0.2-0.4,0.4-0.5,0.7c-0.1,0.3-0.1,0.6-0.1,0.9c0,0.6,0.1,1.2,0.2,1.7c0.2,0.5,0.2,1.1,0.2,1.7c0,2.6,0,5.2,0,7.9
					c0,2.7,0,5.5,0,8.2c0,2.8,0,5.5,0,8.2c0,2.7,0,5.3,0,7.8c0,0.7,0.1,1.4,0.4,2c0.3,0.6,0.6,1.2,1.1,1.6c0.5,0.5,1,0.8,1.6,1.1
					c0.6,0.3,1.3,0.4,2,0.4c0.7,0,1.4-0.1,2-0.4c0.6-0.3,1.2-0.6,1.6-1.1c0.5-0.5,0.8-1,1.1-1.6s0.4-1.3,0.4-2c0-1.6,0-3.1,0-4.7
					c0-1.6,0-3.3,0-5s0-3.6,0-5.6c0-2,0-4.2,0-6.5l7.3,9.1c0.4,0.5,0.8,0.9,1.1,1.2c0.3,0.4,0.6,0.6,0.9,0.9
					c0.3,0.2,0.6,0.4,0.9,0.5c0.3,0.1,0.6,0.2,1,0.2c0.7,0,1.4-0.3,2-0.8c0.6-0.5,1.3-1.2,1.9-2l7.1-9v21.9c0,0.9,0.2,1.7,0.5,2.4
					c0.3,0.7,0.8,1.2,1.3,1.6c0.5,0.4,1.1,0.7,1.7,0.9c0.6,0.2,1.1,0.3,1.6,0.3c0.7,0,1.4-0.1,2.1-0.4c0.6-0.3,1.2-0.6,1.6-1.1
					c0.5-0.5,0.8-1,1.1-1.6c0.3-0.6,0.4-1.3,0.4-2v-28.8c0-0.5,0-1.1,0-1.8c0-0.6,0-1.3-0.1-1.9C199.8,210,199.6,209.4,199.4,208.8z
					"/>
				<path class="st5" d="M242.7,208.2c-0.4-0.7-1-1.3-1.7-1.6c-0.7-0.4-1.5-0.6-2.4-0.8c-0.9-0.1-1.8-0.2-2.7-0.2
					c-0.7,0-1.2,0.1-1.7,0.1c-0.4,0.1-0.8,0.2-1,0.4c-0.3,0.2-0.4,0.4-0.5,0.7c-0.1,0.3-0.1,0.6-0.1,0.9c0,0.5,0.1,1.1,0.2,1.6
					c0.1,0.6,0.2,1.1,0.2,1.7l0.1,20c0,1.1-0.2,2.1-0.7,3c-0.5,0.9-1.1,1.8-1.9,2.5c-0.8,0.7-1.7,1.3-2.8,1.7
					c-1.1,0.4-2.2,0.6-3.4,0.6c-1.3,0-2.5-0.2-3.6-0.6c-1.1-0.4-2-1-2.7-1.7c-0.7-0.7-1.3-1.5-1.7-2.5c-0.4-0.9-0.6-1.9-0.6-3v-20
					c0-1.2-0.3-2.1-0.7-2.8c-0.4-0.7-1-1.3-1.6-1.7c-0.7-0.4-1.4-0.7-2.3-0.8c-0.9-0.1-1.8-0.2-2.8-0.2c-0.7,0-1.2,0.1-1.7,0.1
					c-0.4,0.1-0.8,0.2-1,0.4c-0.3,0.2-0.4,0.4-0.5,0.7c-0.1,0.3-0.2,0.6-0.2,0.9c0,0.5,0.1,1.1,0.2,1.6c0.1,0.6,0.2,1.1,0.3,1.7
					l0,20c0,2.5,0.5,4.9,1.5,7.1c1,2.2,2.3,4.1,4.1,5.8c1.7,1.6,3.7,2.9,6,3.9c2.3,0.9,4.8,1.4,7.4,1.4c1.7,0,3.4-0.2,5-0.7
					c1.6-0.4,3.1-1.1,4.5-1.8c1.4-0.8,2.7-1.7,3.8-2.9c1.2-1.1,2.1-2.3,3-3.7c0.8-1.4,1.5-2.8,2-4.3c0.5-1.5,0.7-3.1,0.7-4.8l0-20
					C243.3,209.9,243.1,209,242.7,208.2z"/>
				<path class="st5" d="M274.6,228.5c-0.9-1-2-1.8-3.2-2.6c-1.2-0.7-2.4-1.4-3.6-2.1c-1.2-0.6-2.4-1.2-3.6-1.7
					c-1.2-0.5-2.3-1.1-3.2-1.6c-0.9-0.5-1.7-1-2.2-1.6c-0.6-0.5-0.9-1.1-0.9-1.7c0-0.4,0.1-0.8,0.4-1.2c0.3-0.4,0.6-0.6,1-0.9
					c0.4-0.2,0.8-0.4,1.3-0.5c0.5-0.1,1-0.2,1.4-0.2c0.9,0,1.7,0.3,2.5,0.8c0.8,0.5,1.6,1.2,2.5,2c0.5,0.4,0.9,0.7,1.3,1
					c0.4,0.2,0.8,0.4,1.1,0.5c0.4,0.1,0.7,0.2,1.1,0.2c0.4,0,0.7,0,1.1,0c0.7,0,1.4-0.1,2-0.2c0.6-0.1,1.1-0.4,1.6-0.7
					c0.4-0.3,0.8-0.8,1-1.3c0.3-0.5,0.4-1.2,0.4-2c0-0.9-0.2-1.7-0.6-2.5c-0.4-0.8-1-1.5-1.7-2.2c-0.7-0.7-1.5-1.3-2.4-1.9
					c-0.9-0.6-1.9-1-2.9-1.4c-1-0.4-2-0.7-3.1-0.9c-1-0.2-2-0.3-2.9-0.3c-2.3,0-4.3,0.3-6.1,0.9c-1.8,0.6-3.4,1.4-4.7,2.5
					c-1.3,1.1-2.3,2.4-3,3.9c-0.7,1.5-1,3.2-1,5c0,1.6,0.3,2.9,0.8,4.2c0.5,1.2,1.2,2.3,2.1,3.2c0.9,1,1.9,1.8,3,2.5
					c1.1,0.7,2.3,1.4,3.4,2c1.2,0.6,2.3,1.1,3.4,1.6c1.1,0.5,2.1,1,3,1.4c0.9,0.5,1.6,0.9,2.1,1.4c0.5,0.5,0.8,1,0.8,1.5
					c0,0.5-0.1,1-0.4,1.4c-0.3,0.4-0.6,0.7-1.1,1c-0.4,0.3-0.9,0.4-1.5,0.6c-0.6,0.1-1.1,0.2-1.7,0.2c-0.5,0-1.1-0.1-1.7-0.2
					c-0.6-0.1-1.1-0.3-1.7-0.6c-0.6-0.2-1.1-0.5-1.5-0.8c-0.5-0.3-0.9-0.6-1.2-1c-0.8-0.7-1.6-1.2-2.4-1.6c-0.7-0.4-1.5-0.6-2.2-0.6
					c-0.7,0-1.4,0.1-1.9,0.4c-0.6,0.3-1,0.6-1.4,1.1c-0.4,0.4-0.7,1-0.9,1.6c-0.2,0.6-0.3,1.2-0.2,1.9c0.1,1.1,0.5,2.1,1.1,3.3
					c0.6,1.1,1.6,2.2,2.8,3.1c1.2,0.9,2.8,1.7,4.6,2.3c1.9,0.6,4.1,0.9,6.6,0.9c1.7,0,3.5-0.3,5.4-0.8c1.8-0.5,3.5-1.3,5.1-2.4
					s2.8-2.4,3.8-4c1-1.6,1.5-3.5,1.5-5.6c0-1.5-0.3-2.8-0.9-4C276.2,230.5,275.5,229.4,274.6,228.5z"/>
				<path class="st5" d="M292,206.6c-0.7-0.4-1.4-0.6-2.3-0.8c-0.9-0.1-1.8-0.2-2.8-0.2c-0.7,0-1.2,0.1-1.7,0.1
					c-0.4,0.1-0.8,0.2-1,0.4c-0.3,0.2-0.4,0.4-0.5,0.7c-0.1,0.3-0.1,0.6-0.1,0.9c0,0.5,0.1,1.1,0.2,1.6c0.1,0.6,0.2,1.1,0.2,1.7
					v32.1c0,0.7,0.1,1.4,0.4,2c0.3,0.6,0.6,1.2,1.1,1.7c0.5,0.5,1,0.9,1.6,1.2c0.6,0.3,1.3,0.4,2.1,0.4c0.7,0,1.4-0.1,2.1-0.4
					c0.6-0.3,1.2-0.7,1.6-1.1c0.5-0.5,0.8-1,1.1-1.7c0.3-0.6,0.4-1.3,0.4-2v-32.3c-0.1-1.1-0.3-2-0.7-2.6
					C293.2,207.5,292.7,207,292,206.6z"/>
				<path class="st5" d="M337.2,234.1c-0.4-0.4-0.9-0.7-1.4-0.9c-0.5-0.2-1-0.3-1.6-0.3c-0.5,0-1.1,0.1-1.6,0.2
					c-0.5,0.1-1,0.3-1.5,0.6c-0.7,0.6-1.4,1.1-2.1,1.7c-0.7,0.5-1.3,1-2,1.5c-0.7,0.4-1.5,0.8-2.3,1.1c-0.8,0.3-1.8,0.4-2.9,0.4
					c-1.5,0-2.9-0.3-4.3-0.9c-1.3-0.6-2.5-1.4-3.5-2.4c-1-1-1.8-2.2-2.4-3.6c-0.6-1.4-0.9-2.8-0.9-4.3c0-1.5,0.3-3,0.9-4.3
					c0.6-1.4,1.4-2.6,2.4-3.6c1-1,2.2-1.8,3.5-2.4c1.3-0.6,2.8-0.9,4.3-0.9c0.9,0,1.8,0.1,2.6,0.3c0.8,0.2,1.5,0.5,2.1,0.8
					c0.6,0.4,1.2,0.8,1.8,1.2c0.5,0.4,1.1,0.9,1.6,1.4c0.7,0.6,1.3,0.9,2,1.1c0.7,0.2,1.3,0.3,1.9,0.2c0.6,0,1.2-0.2,1.7-0.5
					c0.5-0.3,1-0.6,1.4-1c0.5-0.5,0.9-1.1,1.2-1.8c0.3-0.7,0.4-1.3,0.3-1.8c0-0.7-0.2-1.4-0.4-2c-0.3-0.6-0.6-1.2-1.1-1.7
					c-1.1-1.2-2.1-2.2-3.2-3c-1.1-0.8-2.3-1.5-3.5-2.1c-1.2-0.5-2.5-0.9-3.9-1.2c-1.4-0.2-2.8-0.4-4.5-0.4c-2,0-3.9,0.3-5.7,0.8
					c-1.8,0.5-3.5,1.2-5.1,2.2c-1.6,0.9-3,2-4.3,3.3c-1.3,1.3-2.4,2.7-3.4,4.3c-0.9,1.6-1.7,3.3-2.2,5.1c-0.5,1.8-0.8,3.7-0.8,5.7
					c0,3,0.6,5.7,1.7,8.3c1.1,2.6,2.7,4.9,4.6,6.8c1.9,1.9,4.2,3.5,6.8,4.6c2.6,1.1,5.4,1.7,8.3,1.7c1.7,0,3.3-0.1,4.7-0.4
					c1.5-0.3,2.8-0.7,4.1-1.3c1.3-0.6,2.4-1.3,3.5-2.2c1.1-0.9,2.2-1.9,3.2-3.2c0.5-0.5,0.9-1.1,1.2-1.8c0.2-0.6,0.3-1.3,0.3-1.9
					C338.9,236.3,338.4,235.1,337.2,234.1z"/>
			</g>
		</g>
	</g>
</g>
</svg>
