<?xml version="1.0" encoding="utf-8"?>
<!-- Generator: Adobe Illustrator 22.1.0, SVG Export Plug-In . SVG Version: 6.00 Build 0)  -->
<svg version="1.1" id="Camada_1" xmlns="http://www.w3.org/2000/svg" xmlns:xlink="http://www.w3.org/1999/xlink" x="0px" y="0px"
	 viewBox="0 0 37.8 133" style="enable-background:new 0 0 37.8 133;" xml:space="preserve">
<style type="text/css">
	.st0{fill:#FFFFFF;}
</style>
<g>
	<path class="st0" d="M4.9,18.4L30.7,67c0.3,0.6,1,0.8,1.6,0.5c0.6-0.3,0.8-1,0.5-1.6L7.1,17.4c-0.3-0.6-1.1-0.8-1.6-0.5
		C5,17.2,4.7,17.8,4.9,18.4z"/>
	<path class="st0" d="M32.8,67L7.1,115.7c-0.3,0.6-1,0.8-1.6,0.5c-0.6-0.3-0.8-1-0.5-1.6l25.7-48.6c0.3-0.6,1-0.8,1.6-0.5
		C32.8,65.8,33.1,66.4,32.8,67z"/>
</g>
</svg>
