<?xml version="1.0" encoding="utf-8"?>
<!-- Generator: Adobe Illustrator 23.0.2, SVG Export Plug-In . SVG Version: 6.00 Build 0)  -->
<svg version="1.1" id="Camada_1" xmlns="http://www.w3.org/2000/svg" xmlns:xlink="http://www.w3.org/1999/xlink" x="0px" y="0px"
	 viewBox="0 0 50 20.2" style="enable-background:new 0 0 50 20.2;" xml:space="preserve">
<style type="text/css">
	.st0{opacity:0.76;fill:#6B6B6B;}
	.st1{fill:#F3EEEB;}
	.st2{fill:url(#SVGID_1_);}
</style>
<g>
	<path class="st0" d="M50,10.5c0,5.3-11.2,9.7-25,9.7c-13.8,0-25-4.3-25-9.7c0-5.3,11.2-9.7,25-9.7C38.8,0.9,50,5.2,50,10.5z"/>
	<ellipse class="st1" cx="25.2" cy="9.2" rx="24.2" ry="9.2"/>
	<linearGradient id="SVGID_1_" gradientUnits="userSpaceOnUse" x1="4.0677" y1="9.0093" x2="46.5932" y2="9.0093">
		<stop  offset="0" style="stop-color:#FDD715"/>
		<stop  offset="1" style="stop-color:#F38328"/>
	</linearGradient>
	<path class="st2" d="M46.6,9c0,4-9.5,7.2-21.3,7.2C13.6,16.2,4.1,13,4.1,9c0-4,9.5-7.2,21.3-7.2C37.1,1.8,46.6,5.1,46.6,9z"/>
</g>
</svg>
